<svg xmlns="http://www.w3.org/2000/svg" width="375" viewBox="0 0 375 375" height="375" version="1.0"><defs><clipPath id="a"><path d="M 0 59 L 375 59 L 375 247.859375 L 0 247.859375 Z M 0 59"/></clipPath></defs><g clip-path="url(#a)"><path fill="#B27409" d="M 375.042969 244.597656 L 374.507812 200.6875 L 373.851562 156.777344 L 373.191406 200.6875 L 372.675781 243.378906 C 342.164062 242.945312 311.667969 242.816406 281.160156 242.566406 L 188.464844 241.933594 L 95.773438 241.625 L 6.136719 241.527344 L 6.007812 153.164062 L 5.6875 64.320312 L 132.980469 63.382812 C 154.636719 63.253906 176.28125 62.890625 197.9375 62.652344 L 230.40625 62.261719 L 262.878906 61.742188 L 230.40625 61.210938 L 197.9375 60.816406 C 176.28125 60.578125 154.636719 60.214844 132.980469 60.089844 L 3.066406 59.121094 L 0.476562 59.105469 L 0.460938 61.742188 L 0.125 153.164062 L 0 244.597656 L 0 247.667969 L 3.066406 247.667969 L 95.761719 247.570312 L 188.453125 247.261719 L 281.144531 246.628906 C 312.046875 246.378906 342.933594 246.25 373.835938 245.804688 L 375.042969 245.789062 Z M 375.042969 244.597656"/></g><path fill="#B27409" d="M 259.460938 111.382812 L 221.191406 149.671875 L 176.125 104.585938 C 175.550781 104.011719 174.765625 103.6875 173.953125 103.6875 L 120.234375 103.6875 C 120.234375 103.6875 120.234375 103.6875 120.21875 103.6875 C 119.378906 103.6875 118.609375 104.039062 118.046875 104.601562 L 24.835938 197.84375 C 23.632812 199.046875 23.632812 200.984375 24.835938 202.1875 C 25.4375 202.789062 26.222656 203.085938 27.007812 203.085938 C 27.792969 203.085938 28.578125 202.789062 29.179688 202.1875 L 120.234375 111.089844 L 210.542969 201.445312 C 211.117188 202.019531 211.902344 202.34375 212.714844 202.34375 L 266.4375 202.34375 C 267.683594 202.34375 268.789062 201.597656 269.265625 200.449219 C 269.742188 199.300781 269.476562 197.984375 268.609375 197.101562 L 225.53125 154.019531 L 261.632812 117.914062 L 345.625 201.949219 C 345.695312 202.046875 345.777344 202.132812 345.863281 202.214844 C 346.464844 202.804688 347.234375 203.113281 348.019531 203.113281 C 348.820312 203.113281 349.601562 202.804688 350.207031 202.203125 C 351.410156 200.996094 351.410156 199.0625 350.207031 197.855469 L 263.804688 111.410156 C 263.199219 110.808594 262.414062 110.515625 261.632812 110.515625 C 260.847656 110.515625 260.0625 110.796875 259.460938 111.382812 Z M 259.027344 196.203125 L 213.988281 196.203125 L 196.113281 178.320312 L 232.632812 175.671875 L 190.414062 172.617188 L 179.039062 161.234375 L 214.1875 158.683594 L 173.546875 155.742188 L 162.160156 144.347656 L 198.71875 141.699219 L 156.457031 138.644531 L 145.125 127.304688 L 180.859375 124.710938 L 139.5625 121.753906 L 127.644531 109.828125 L 172.679688 109.828125 L 219.019531 156.191406 Z M 259.027344 196.203125"/><path fill="#B27409" d="M 252.160156 148.707031 L 259.851562 148.707031 L 259.851562 156.402344 L 252.160156 156.402344 Z M 252.160156 148.707031"/><path fill="#B27409" d="M 263.410156 148.707031 L 271.101562 148.707031 L 271.101562 156.402344 L 263.410156 156.402344 Z M 263.410156 148.707031"/><path fill="#B27409" d="M 252.160156 159.945312 L 259.851562 159.945312 L 259.851562 167.640625 L 252.160156 167.640625 Z M 252.160156 159.945312"/><path fill="#B27409" d="M 263.410156 159.945312 L 271.101562 159.945312 L 271.101562 167.640625 L 263.410156 167.640625 Z M 263.410156 159.945312"/><path fill="#B27409" d="M 108.324219 151.929688 L 117.976562 151.929688 L 117.976562 161.585938 L 108.324219 161.585938 Z M 108.324219 151.929688"/><path fill="#B27409" d="M 122.402344 151.929688 L 132.054688 151.929688 L 132.054688 161.585938 L 122.402344 161.585938 Z M 122.402344 151.929688"/><path fill="#B27409" d="M 108.324219 166.015625 L 117.976562 166.015625 L 117.976562 175.671875 L 108.324219 175.671875 Z M 108.324219 166.015625"/><path fill="#B27409" d="M 122.402344 166.015625 L 132.054688 166.015625 L 132.054688 175.671875 L 122.402344 175.671875 Z M 122.402344 166.015625"/><g fill="#1C2120"><g><g><path d="M 2.078125 -31.0625 L 2.078125 -29.703125 L 6.21875 -29.703125 L 6.21875 -1.34375 L 2.078125 -1.34375 L 2.078125 0 L 16.359375 0 C 21.015625 0 24.84375 -1.445312 27.84375 -4.34375 C 30.8125 -7.207031 32.296875 -10.9375 32.296875 -15.53125 C 32.296875 -21.46875 30.125 -25.816406 25.78125 -28.578125 C 23.125 -30.234375 20.035156 -31.0625 16.515625 -31.0625 Z M 16.359375 -29.703125 C 21.804688 -29.703125 25.203125 -27.21875 26.546875 -22.25 C 27.066406 -20.425781 27.328125 -18.253906 27.328125 -15.734375 C 27.328125 -7.140625 24.394531 -2.394531 18.53125 -1.5 C 17.875 -1.394531 17.203125 -1.34375 16.515625 -1.34375 L 10.65625 -1.34375 L 10.65625 -29.703125 Z M 16.359375 -29.703125" transform="translate(128.718 236.878)"/></g></g></g><g fill="#1C2120"><g><g><path d="M 40.421875 -31.0625 L 32.140625 -31.0625 L 20.96875 -5.75 L 8.953125 -31.0625 L 1.546875 -31.0625 L 1.546875 -29.703125 L 5.6875 -29.703125 L 5.6875 -1.34375 L 1.546875 -1.34375 L 1.546875 0 L 11.90625 0 C 11.90625 -0.757812 11.628906 -1.191406 11.078125 -1.296875 C 10.898438 -1.328125 10.726562 -1.34375 10.5625 -1.34375 L 7.765625 -1.34375 L 7.765625 -23.609375 L 19.09375 0.265625 L 20.1875 0.265625 L 32.140625 -26.390625 L 32.140625 -1.34375 L 28 -1.34375 L 28 0 L 40.421875 0 C 40.421875 -0.757812 40.144531 -1.191406 39.59375 -1.296875 C 39.425781 -1.328125 39.253906 -1.34375 39.078125 -1.34375 L 36.28125 -1.34375 L 36.28125 -29.703125 L 40.421875 -29.703125 Z M 40.421875 -31.0625" transform="translate(167.937 236.878)"/></g></g></g><g fill="#1C2120"><g><g><path d="M 28.359375 -2.375 C 28.359375 -0.925781 28.566406 -0.0976562 28.984375 0.109375 C 29.222656 0.210938 29.550781 0.265625 29.96875 0.265625 L 29.96875 -9.53125 L 28.71875 -9.53125 C 26.96875 -3.832031 23.453125 -0.96875 18.171875 -0.9375 C 13.679688 -0.9375 10.625 -3.195312 9 -7.71875 C 8.207031 -9.925781 7.8125 -12.53125 7.8125 -15.53125 C 7.8125 -21.976562 9.585938 -26.359375 13.140625 -28.671875 C 14.691406 -29.640625 16.421875 -30.125 18.328125 -30.125 C 22.640625 -30.125 25.757812 -28.085938 27.6875 -24.015625 C 28.03125 -23.285156 28.328125 -22.546875 28.578125 -21.796875 L 29.8125 -21.796875 L 29.65625 -31.3125 C 28.894531 -31.3125 28.429688 -31.070312 28.265625 -30.59375 C 28.160156 -30.175781 28.109375 -29.503906 28.109375 -28.578125 C 27.109375 -29.578125 25.398438 -30.382812 22.984375 -31 C 21.390625 -31.382812 19.765625 -31.578125 18.109375 -31.578125 C 12.660156 -31.578125 8.488281 -29.554688 5.59375 -25.515625 C 3.59375 -22.648438 2.59375 -19.351562 2.59375 -15.625 C 2.59375 -11.101562 3.988281 -7.3125 6.78125 -4.25 C 9.75 -1.070312 13.613281 0.515625 18.375 0.515625 C 21.863281 0.484375 25.191406 -0.476562 28.359375 -2.375 Z M 28.359375 -2.375" transform="translate(213.987 236.878)"/></g></g></g><g fill="#1C2120"><g><g><path d="M 10.125 0.140625 C 8.445312 0.140625 6.929688 -0.226562 5.578125 -0.96875 C 4.234375 -1.707031 3.175781 -2.734375 2.40625 -4.046875 C 1.644531 -5.367188 1.265625 -6.847656 1.265625 -8.484375 C 1.265625 -10.109375 1.644531 -11.578125 2.40625 -12.890625 C 3.175781 -14.210938 4.238281 -15.242188 5.59375 -15.984375 C 6.945312 -16.722656 8.460938 -17.09375 10.140625 -17.09375 C 11.398438 -17.09375 12.5625 -16.882812 13.625 -16.46875 C 14.695312 -16.050781 15.601562 -15.4375 16.34375 -14.625 L 15.203125 -13.484375 C 13.878906 -14.828125 12.210938 -15.5 10.203125 -15.5 C 8.859375 -15.5 7.632812 -15.191406 6.53125 -14.578125 C 5.4375 -13.960938 4.578125 -13.125 3.953125 -12.0625 C 3.335938 -11 3.03125 -9.804688 3.03125 -8.484375 C 3.03125 -7.148438 3.335938 -5.953125 3.953125 -4.890625 C 4.578125 -3.828125 5.4375 -2.988281 6.53125 -2.375 C 7.632812 -1.757812 8.859375 -1.453125 10.203125 -1.453125 C 12.234375 -1.453125 13.898438 -2.128906 15.203125 -3.484375 L 16.34375 -2.34375 C 15.601562 -1.539062 14.695312 -0.925781 13.625 -0.5 C 12.550781 -0.0703125 11.382812 0.140625 10.125 0.140625 Z M 10.125 0.140625" transform="translate(44.647 270.843)"/></g></g></g><g fill="#1C2120"><g><g><path d="M 13.390625 -4.53125 L 3.953125 -4.53125 L 1.90625 0 L 0.046875 0 L 7.796875 -16.953125 L 9.5625 -16.953125 L 17.3125 0 L 15.421875 0 Z M 12.734375 -5.984375 L 8.671875 -15.09375 L 4.609375 -5.984375 Z M 12.734375 -5.984375" transform="translate(67.054 270.843)"/></g></g></g><g fill="#1C2120"><g><g><path d="M 13.4375 -8.75 C 14.550781 -8.5 15.410156 -8.015625 16.015625 -7.296875 C 16.617188 -6.578125 16.921875 -5.65625 16.921875 -4.53125 C 16.921875 -3.070312 16.382812 -1.953125 15.3125 -1.171875 C 14.238281 -0.390625 12.65625 0 10.5625 0 L 2.765625 0 L 2.765625 -16.953125 L 10.078125 -16.953125 C 11.960938 -16.953125 13.425781 -16.570312 14.46875 -15.8125 C 15.507812 -15.050781 16.03125 -13.976562 16.03125 -12.59375 C 16.03125 -11.65625 15.800781 -10.859375 15.34375 -10.203125 C 14.882812 -9.554688 14.25 -9.070312 13.4375 -8.75 Z M 4.546875 -15.46875 L 4.546875 -9.328125 L 9.953125 -9.328125 C 11.328125 -9.328125 12.382812 -9.585938 13.125 -10.109375 C 13.863281 -10.640625 14.234375 -11.40625 14.234375 -12.40625 C 14.234375 -13.40625 13.863281 -14.164062 13.125 -14.6875 C 12.382812 -15.207031 11.328125 -15.46875 9.953125 -15.46875 Z M 10.53125 -1.484375 C 12.050781 -1.484375 13.195312 -1.738281 13.96875 -2.25 C 14.75 -2.769531 15.140625 -3.578125 15.140625 -4.671875 C 15.140625 -6.785156 13.601562 -7.84375 10.53125 -7.84375 L 4.546875 -7.84375 L 4.546875 -1.484375 Z M 10.53125 -1.484375" transform="translate(89.412 270.843)"/></g></g></g><g fill="#1C2120"><g><g><path d="M 2.765625 -16.953125 L 4.546875 -16.953125 L 4.546875 0 L 2.765625 0 Z M 2.765625 -16.953125" transform="translate(112.667 270.843)"/></g></g></g><g fill="#1C2120"><g><g><path d="M 16.921875 -16.953125 L 16.921875 0 L 15.453125 0 L 4.546875 -13.75 L 4.546875 0 L 2.765625 0 L 2.765625 -16.953125 L 4.234375 -16.953125 L 15.15625 -3.203125 L 15.15625 -16.953125 Z M 16.921875 -16.953125" transform="translate(124.973 270.843)"/></g></g></g><g fill="#1C2120"><g><g><path d="M 14.75 -1.546875 L 14.75 0 L 2.765625 0 L 2.765625 -16.953125 L 14.390625 -16.953125 L 14.390625 -15.40625 L 4.546875 -15.40625 L 4.546875 -9.375 L 13.328125 -9.375 L 13.328125 -7.84375 L 4.546875 -7.84375 L 4.546875 -1.546875 Z M 14.75 -1.546875" transform="translate(149.657 270.843)"/></g></g></g><g fill="#1C2120"><g><g><path d="M 6.0625 -15.40625 L 0.09375 -15.40625 L 0.09375 -16.953125 L 13.8125 -16.953125 L 13.8125 -15.40625 L 7.84375 -15.40625 L 7.84375 0 L 6.0625 0 Z M 6.0625 -15.40625" transform="translate(170.853 270.843)"/></g></g></g><g fill="#1C2120"><g><g><path d="M 7.4375 0.140625 C 6.175781 0.140625 4.96875 -0.0546875 3.8125 -0.453125 C 2.65625 -0.859375 1.765625 -1.394531 1.140625 -2.0625 L 1.84375 -3.4375 C 2.457031 -2.820312 3.269531 -2.320312 4.28125 -1.9375 C 5.300781 -1.5625 6.351562 -1.375 7.4375 -1.375 C 8.957031 -1.375 10.09375 -1.648438 10.84375 -2.203125 C 11.601562 -2.765625 11.984375 -3.492188 11.984375 -4.390625 C 11.984375 -5.066406 11.773438 -5.601562 11.359375 -6 C 10.953125 -6.40625 10.453125 -6.71875 9.859375 -6.9375 C 9.265625 -7.15625 8.429688 -7.394531 7.359375 -7.65625 C 6.085938 -7.976562 5.070312 -8.285156 4.3125 -8.578125 C 3.550781 -8.878906 2.898438 -9.335938 2.359375 -9.953125 C 1.816406 -10.566406 1.546875 -11.398438 1.546875 -12.453125 C 1.546875 -13.304688 1.769531 -14.082031 2.21875 -14.78125 C 2.675781 -15.488281 3.375 -16.050781 4.3125 -16.46875 C 5.25 -16.882812 6.410156 -17.09375 7.796875 -17.09375 C 8.765625 -17.09375 9.710938 -16.957031 10.640625 -16.6875 C 11.566406 -16.425781 12.367188 -16.0625 13.046875 -15.59375 L 12.453125 -14.171875 C 11.742188 -14.640625 10.984375 -14.988281 10.171875 -15.21875 C 9.367188 -15.457031 8.578125 -15.578125 7.796875 -15.578125 C 6.316406 -15.578125 5.195312 -15.289062 4.4375 -14.71875 C 3.6875 -14.144531 3.3125 -13.40625 3.3125 -12.5 C 3.3125 -11.820312 3.515625 -11.273438 3.921875 -10.859375 C 4.335938 -10.453125 4.859375 -10.140625 5.484375 -9.921875 C 6.109375 -9.703125 6.945312 -9.460938 8 -9.203125 C 9.238281 -8.898438 10.238281 -8.597656 11 -8.296875 C 11.769531 -7.992188 12.421875 -7.539062 12.953125 -6.9375 C 13.484375 -6.332031 13.75 -5.515625 13.75 -4.484375 C 13.75 -3.628906 13.519531 -2.847656 13.0625 -2.140625 C 12.601562 -1.441406 11.894531 -0.882812 10.9375 -0.46875 C 9.988281 -0.0625 8.820312 0.140625 7.4375 0.140625 Z M 7.4375 0.140625" transform="translate(189.748 270.843)"/></g></g></g><g fill="#1C2120"><g><g><path d="M 14.890625 0.265625 L 12.546875 -2.15625 C 11.109375 -0.625 9.21875 0.140625 6.875 0.140625 C 5.78125 0.140625 4.800781 -0.0351562 3.9375 -0.390625 C 3.070312 -0.753906 2.394531 -1.265625 1.90625 -1.921875 C 1.425781 -2.578125 1.1875 -3.328125 1.1875 -4.171875 C 1.1875 -5.179688 1.507812 -6.085938 2.15625 -6.890625 C 2.800781 -7.703125 3.898438 -8.554688 5.453125 -9.453125 C 4.640625 -10.285156 4.078125 -10.992188 3.765625 -11.578125 C 3.460938 -12.171875 3.3125 -12.800781 3.3125 -13.46875 C 3.3125 -14.550781 3.695312 -15.421875 4.46875 -16.078125 C 5.25 -16.742188 6.296875 -17.078125 7.609375 -17.078125 C 8.816406 -17.078125 9.773438 -16.773438 10.484375 -16.171875 C 11.191406 -15.578125 11.546875 -14.753906 11.546875 -13.703125 C 11.546875 -12.867188 11.265625 -12.113281 10.703125 -11.4375 C 10.140625 -10.769531 9.164062 -10.035156 7.78125 -9.234375 L 12.421875 -4.4375 C 12.941406 -5.351562 13.320312 -6.441406 13.5625 -7.703125 L 14.96875 -7.265625 C 14.65625 -5.742188 14.15625 -4.441406 13.46875 -3.359375 L 15.890625 -0.875 Z M 7.609375 -15.796875 C 6.765625 -15.796875 6.101562 -15.582031 5.625 -15.15625 C 5.15625 -14.738281 4.921875 -14.179688 4.921875 -13.484375 C 4.921875 -12.984375 5.046875 -12.507812 5.296875 -12.0625 C 5.554688 -11.613281 6.066406 -11 6.828125 -10.21875 C 8.054688 -10.925781 8.90625 -11.53125 9.375 -12.03125 C 9.84375 -12.53125 10.078125 -13.082031 10.078125 -13.6875 C 10.078125 -14.332031 9.859375 -14.84375 9.421875 -15.21875 C 8.984375 -15.601562 8.378906 -15.796875 7.609375 -15.796875 Z M 6.96875 -1.28125 C 8.84375 -1.28125 10.363281 -1.921875 11.53125 -3.203125 L 6.421875 -8.453125 C 5.078125 -7.691406 4.148438 -7.003906 3.640625 -6.390625 C 3.128906 -5.773438 2.875 -5.085938 2.875 -4.328125 C 2.875 -3.410156 3.25 -2.671875 4 -2.109375 C 4.757812 -1.554688 5.75 -1.28125 6.96875 -1.28125 Z M 6.96875 -1.28125" transform="translate(220.973 270.843)"/></g></g></g><g fill="#1C2120"><g><g><path d="M 6.0625 -15.40625 L 0.09375 -15.40625 L 0.09375 -16.953125 L 13.8125 -16.953125 L 13.8125 -15.40625 L 7.84375 -15.40625 L 7.84375 0 L 6.0625 0 Z M 6.0625 -15.40625" transform="translate(253.506 270.843)"/></g></g></g><g fill="#1C2120"><g><g><path d="M 14.34375 0 L 10.46875 -5.453125 C 10.03125 -5.398438 9.578125 -5.375 9.109375 -5.375 L 4.546875 -5.375 L 4.546875 0 L 2.765625 0 L 2.765625 -16.953125 L 9.109375 -16.953125 C 11.273438 -16.953125 12.96875 -16.4375 14.1875 -15.40625 C 15.414062 -14.375 16.03125 -12.953125 16.03125 -11.140625 C 16.03125 -9.816406 15.691406 -8.695312 15.015625 -7.78125 C 14.347656 -6.875 13.394531 -6.21875 12.15625 -5.8125 L 16.296875 0 Z M 9.0625 -6.90625 C 10.738281 -6.90625 12.019531 -7.273438 12.90625 -8.015625 C 13.789062 -8.753906 14.234375 -9.796875 14.234375 -11.140625 C 14.234375 -12.515625 13.789062 -13.566406 12.90625 -14.296875 C 12.019531 -15.035156 10.738281 -15.40625 9.0625 -15.40625 L 4.546875 -15.40625 L 4.546875 -6.90625 Z M 9.0625 -6.90625" transform="translate(272.4 270.843)"/></g></g></g><g fill="#1C2120"><g><g><path d="M 2.765625 -16.953125 L 4.546875 -16.953125 L 4.546875 0 L 2.765625 0 Z M 2.765625 -16.953125" transform="translate(294.904 270.843)"/></g></g></g><g fill="#1C2120"><g><g><path d="M 20.375 -16.953125 L 20.375 0 L 18.65625 0 L 18.65625 -13.5625 L 11.984375 -2.15625 L 11.140625 -2.15625 L 4.484375 -13.484375 L 4.484375 0 L 2.765625 0 L 2.765625 -16.953125 L 4.234375 -16.953125 L 11.59375 -4.390625 L 18.890625 -16.953125 Z M 20.375 -16.953125" transform="translate(307.21 270.843)"/></g></g></g></svg>