<svg xmlns="http://www.w3.org/2000/svg" width="375" viewBox="0 0 375 375" height="375" version="1.0"><defs><clipPath id="a"><path d="M 1 107 L 90 107 L 90 202.335938 L 1 202.335938 Z M 1 107"/></clipPath><clipPath id="b"><path d="M 87 93.585938 L 245 93.585938 L 245 191 L 87 191 Z M 87 93.585938"/></clipPath></defs><g clip-path="url(#a)"><path d="M 1.773438 199.953125 L 76.386719 107.871094 L 89.878906 121.367188 L 33.523438 189.632812 L 35.113281 202.335938 Z M 1.773438 199.953125" fill-rule="evenodd"/></g><path d="M 374.035156 199.160156 L 324.820312 138.039062 L 315.296875 146.769531 L 353.394531 192.015625 L 351.808594 200.746094 Z M 374.035156 199.160156" fill-rule="evenodd"/><path fill="#FFCE6D" d="M 316.886719 128.511719 L 259.738281 198.367188 L 170.839844 197.570312 L 219.257812 147.5625 Z M 316.886719 128.511719" fill-rule="evenodd"/><g clip-path="url(#b)"><path fill="#ED5B2D" d="M 186.714844 126.925781 L 174.015625 121.367188 L 174.015625 111.046875 L 87.496094 94.378906 L 166.078125 190.425781 L 214.492188 139.625 L 244.65625 134.066406 L 233.542969 122.953125 L 198.621094 115.8125 L 198.621094 93.585938 L 186.714844 93.585938 Z M 186.714844 126.925781" fill-rule="evenodd"/></g><path d="M 96.230469 184.078125 L 96.230469 165.820312 L 79.558594 165.820312 L 79.558594 184.078125 Z M 79.558594 162.644531 L 96.230469 162.644531 L 96.230469 145.179688 C 87.496094 145.976562 80.355469 153.121094 79.558594 162.644531 Z M 100.199219 162.644531 L 116.867188 162.644531 C 116.070312 153.914062 108.929688 145.976562 100.199219 145.179688 Z M 116.867188 165.820312 L 100.199219 165.820312 L 100.199219 184.078125 L 116.867188 184.078125 Z M 116.867188 165.820312" fill-rule="evenodd"/><path d="M 308.152344 187.253906 L 308.152344 176.140625 L 297.835938 176.140625 L 297.835938 187.253906 Z M 297.835938 174.550781 L 308.152344 174.550781 L 308.152344 164.230469 C 302.597656 165.027344 298.628906 168.996094 297.835938 174.550781 Z M 309.742188 174.550781 L 320.058594 174.550781 C 319.265625 168.996094 315.296875 165.027344 309.742188 164.230469 Z M 320.058594 176.140625 L 309.742188 176.140625 L 309.742188 187.253906 L 320.058594 187.253906 Z M 320.058594 176.140625" fill-rule="evenodd"/><g fill="#ED5B2D"><g><g><path d="M 5.875 0 C 5.019531 0 4.59375 -0.425781 4.59375 -1.28125 L 4.59375 -51.453125 C 4.59375 -52.304688 5.019531 -52.734375 5.875 -52.734375 L 24.328125 -52.734375 C 28.097656 -52.734375 31.398438 -52.066406 34.234375 -50.734375 C 37.078125 -49.398438 39.273438 -47.523438 40.828125 -45.109375 C 42.378906 -42.703125 43.15625 -39.921875 43.15625 -36.765625 L 43.15625 -15.96875 C 43.15625 -12.800781 42.378906 -10.015625 40.828125 -7.609375 C 39.273438 -5.203125 37.078125 -3.332031 34.234375 -2 C 31.398438 -0.664062 28.097656 0 24.328125 0 Z M 15.21875 -9.5625 C 15.21875 -9.257812 15.367188 -9.109375 15.671875 -9.109375 L 24.703125 -9.109375 C 27.015625 -9.109375 28.882812 -9.882812 30.3125 -11.4375 C 31.75 -13 32.492188 -15.085938 32.546875 -17.703125 L 32.546875 -35.03125 C 32.546875 -37.632812 31.828125 -39.710938 30.390625 -41.265625 C 28.960938 -42.828125 27.039062 -43.609375 24.625 -43.609375 L 15.671875 -43.609375 C 15.367188 -43.609375 15.21875 -43.457031 15.21875 -43.15625 Z M 15.21875 -9.5625" transform="translate(114.972 256.608)"/></g></g></g><g fill="#ED5B2D"><g><g><path d="M 5.953125 0 C 5.097656 0 4.671875 -0.425781 4.671875 -1.28125 L 4.671875 -51.453125 C 4.671875 -52.304688 5.097656 -52.734375 5.953125 -52.734375 L 14.015625 -52.734375 C 14.660156 -52.734375 15.160156 -52.457031 15.515625 -51.90625 L 26.4375 -34.28125 C 26.539062 -34.125 26.65625 -34.046875 26.78125 -34.046875 C 26.90625 -34.046875 26.992188 -34.125 27.046875 -34.28125 L 38.109375 -51.90625 C 38.460938 -52.457031 38.96875 -52.734375 39.625 -52.734375 L 47.6875 -52.734375 C 48.539062 -52.734375 48.96875 -52.304688 48.96875 -51.453125 L 48.96875 -1.28125 C 48.96875 -0.425781 48.539062 0 47.6875 0 L 39.625 0 C 38.769531 0 38.34375 -0.425781 38.34375 -1.28125 L 38.34375 -33.890625 C 38.34375 -34.097656 38.28125 -34.222656 38.15625 -34.265625 C 38.03125 -34.316406 37.914062 -34.242188 37.8125 -34.046875 L 30.203125 -21.625 C 29.847656 -21.070312 29.347656 -20.796875 28.703125 -20.796875 L 24.859375 -20.796875 C 24.203125 -20.796875 23.703125 -21.070312 23.359375 -21.625 L 15.8125 -34.046875 C 15.71875 -34.242188 15.609375 -34.316406 15.484375 -34.265625 C 15.359375 -34.222656 15.296875 -34.097656 15.296875 -33.890625 L 15.296875 -1.28125 C 15.296875 -0.425781 14.867188 0 14.015625 0 Z M 5.953125 0" transform="translate(161.524 256.608)"/></g></g></g><g fill="#ED5B2D"><g><g><path d="M 23.125 0.609375 C 19.207031 0.609375 15.765625 -0.15625 12.796875 -1.6875 C 9.835938 -3.226562 7.554688 -5.378906 5.953125 -8.140625 C 4.347656 -10.898438 3.546875 -14.085938 3.546875 -17.703125 L 3.546875 -35.109375 C 3.546875 -38.722656 4.347656 -41.910156 5.953125 -44.671875 C 7.554688 -47.429688 9.835938 -49.5625 12.796875 -51.0625 C 15.765625 -52.570312 19.207031 -53.328125 23.125 -53.328125 C 26.988281 -53.328125 30.390625 -52.609375 33.328125 -51.171875 C 36.265625 -49.742188 38.550781 -47.710938 40.1875 -45.078125 C 41.820312 -42.441406 42.640625 -39.394531 42.640625 -35.9375 C 42.640625 -35.476562 42.238281 -35.203125 41.4375 -35.109375 L 33.375 -34.578125 L 33.0625 -34.578125 C 32.363281 -34.578125 32.015625 -34.703125 32.015625 -34.953125 L 32.015625 -35.40625 C 32.015625 -38.0625 31.195312 -40.191406 29.5625 -41.796875 C 27.9375 -43.410156 25.789062 -44.21875 23.125 -44.21875 C 20.414062 -44.21875 18.242188 -43.410156 16.609375 -41.796875 C 14.972656 -40.191406 14.15625 -38.0625 14.15625 -35.40625 L 14.15625 -17.25 C 14.15625 -14.632812 14.972656 -12.523438 16.609375 -10.921875 C 18.242188 -9.316406 20.414062 -8.515625 23.125 -8.515625 C 25.789062 -8.515625 27.9375 -9.316406 29.5625 -10.921875 C 31.195312 -12.523438 32.015625 -14.632812 32.015625 -17.25 C 32.015625 -17.5 32.125 -17.710938 32.34375 -17.890625 C 32.570312 -18.066406 32.890625 -18.128906 33.296875 -18.078125 L 41.359375 -17.703125 C 42.210938 -17.597656 42.640625 -17.472656 42.640625 -17.328125 L 42.640625 -16.953125 C 42.640625 -13.484375 41.820312 -10.414062 40.1875 -7.75 C 38.550781 -5.09375 36.265625 -3.035156 33.328125 -1.578125 C 30.390625 -0.117188 26.988281 0.609375 23.125 0.609375 Z M 23.125 0.609375" transform="translate(215.083 256.608)"/></g></g></g><g><g><g><path d="M 18.578125 0 L 18.53125 -0.515625 C 18.507812 -1.035156 18.3125 -1.296875 17.9375 -1.296875 C 17.738281 -1.296875 17.378906 -1.160156 16.859375 -0.890625 C 15.242188 0.00390625 13.617188 0.453125 11.984375 0.453125 C 8.859375 0.453125 6.296875 -0.625 4.296875 -2.78125 C 2.296875 -4.945312 1.296875 -7.921875 1.296875 -11.703125 C 1.296875 -15.484375 2.28125 -18.457031 4.25 -20.625 C 6.226562 -22.800781 8.804688 -23.890625 11.984375 -23.890625 C 13.597656 -23.890625 15.210938 -23.484375 16.828125 -22.671875 C 17.347656 -22.390625 17.71875 -22.25 17.9375 -22.25 C 18.3125 -22.25 18.507812 -22.507812 18.53125 -23.03125 L 18.578125 -23.671875 L 19.28125 -23.671875 L 19.28125 -17.234375 L 18.609375 -17.234375 C 18.390625 -19.140625 17.675781 -20.546875 16.46875 -21.453125 C 15.269531 -22.359375 13.773438 -22.8125 11.984375 -22.8125 C 9.722656 -22.8125 7.90625 -21.816406 6.53125 -19.828125 C 5.15625 -17.847656 4.46875 -15.132812 4.46875 -11.6875 C 4.46875 -8.238281 5.160156 -5.53125 6.546875 -3.5625 C 7.941406 -1.601562 9.753906 -0.625 11.984375 -0.625 C 13.773438 -0.625 15.269531 -1.078125 16.46875 -1.984375 C 17.675781 -2.890625 18.390625 -4.300781 18.609375 -6.21875 L 19.28125 -6.21875 L 19.28125 0 Z M 18.578125 0" transform="translate(40.509 288.224)"/></g></g></g><g><g><g><path d="M 10.640625 -8.671875 L 10.6875 -9.96875 L 10.6875 -11.28125 C 10.6875 -14.175781 9.742188 -15.625 7.859375 -15.625 C 7.035156 -15.625 6.394531 -15.34375 5.9375 -14.78125 C 5.476562 -14.226562 5.25 -13.578125 5.25 -12.828125 C 5.25 -12.085938 5.347656 -11.445312 5.546875 -10.90625 C 5.117188 -10.53125 4.535156 -10.34375 3.796875 -10.34375 C 3.054688 -10.34375 2.6875 -10.953125 2.6875 -12.171875 C 2.6875 -13.390625 3.160156 -14.421875 4.109375 -15.265625 C 5.066406 -16.109375 6.425781 -16.53125 8.1875 -16.53125 C 11.632812 -16.53125 13.359375 -14.492188 13.359375 -10.421875 L 13.359375 -2.796875 C 13.359375 -1.453125 13.734375 -0.78125 14.484375 -0.78125 C 14.828125 -0.78125 15.128906 -0.941406 15.390625 -1.265625 C 15.648438 -1.585938 15.78125 -1.957031 15.78125 -2.375 C 15.78125 -2.800781 15.742188 -3.203125 15.671875 -3.578125 L 16.375 -3.6875 C 16.476562 -3.3125 16.53125 -2.898438 16.53125 -2.453125 C 16.53125 -1.554688 16.257812 -0.847656 15.71875 -0.328125 C 15.1875 0.191406 14.484375 0.453125 13.609375 0.453125 C 12.742188 0.453125 12.039062 0.0976562 11.5 -0.609375 C 10.957031 -1.316406 10.6875 -2.378906 10.6875 -3.796875 L 10.6875 -4.46875 C 10.257812 -2.78125 9.585938 -1.535156 8.671875 -0.734375 C 7.753906 0.0546875 6.691406 0.453125 5.484375 0.453125 C 4.285156 0.453125 3.316406 0.0703125 2.578125 -0.6875 C 1.847656 -1.445312 1.484375 -2.453125 1.484375 -3.703125 C 1.484375 -4.953125 2.066406 -6.066406 3.234375 -7.046875 C 4.398438 -8.023438 6.078125 -8.515625 8.265625 -8.515625 C 8.734375 -8.515625 9.523438 -8.457031 10.640625 -8.34375 Z M 6.328125 -0.96875 C 7.367188 -0.96875 8.304688 -1.554688 9.140625 -2.734375 C 9.972656 -3.910156 10.460938 -5.566406 10.609375 -7.703125 C 10.359375 -7.722656 10.007812 -7.734375 9.5625 -7.734375 C 7.582031 -7.734375 6.160156 -7.316406 5.296875 -6.484375 C 4.441406 -5.660156 4.015625 -4.703125 4.015625 -3.609375 C 4.015625 -2.890625 4.222656 -2.269531 4.640625 -1.75 C 5.066406 -1.226562 5.628906 -0.96875 6.328125 -0.96875 Z M 6.328125 -0.96875" transform="translate(65.223 288.224)"/></g></g></g><g><g><g><path d="M 14.90625 -1.8125 C 13.550781 -0.300781 11.78125 0.453125 9.59375 0.453125 C 7.414062 0.453125 5.59375 -0.367188 4.125 -2.015625 L 3.828125 0.296875 L 3.203125 0.296875 L 3.203125 -22.921875 C 3.203125 -23.273438 3.03125 -23.453125 2.6875 -23.453125 L 0.9375 -23.453125 L 0.9375 -24.125 L 2.75 -24.125 C 4.238281 -24.125 5.28125 -24.195312 5.875 -24.34375 L 5.875 -11.09375 C 6.300781 -12.875 6.976562 -14.222656 7.90625 -15.140625 C 8.84375 -16.066406 9.878906 -16.53125 11.015625 -16.53125 C 12.578125 -16.53125 13.953125 -15.742188 15.140625 -14.171875 C 16.335938 -12.609375 16.9375 -10.535156 16.9375 -7.953125 C 16.9375 -5.378906 16.257812 -3.332031 14.90625 -1.8125 Z M 10.453125 -15.109375 C 9.210938 -15.109375 8.140625 -14.335938 7.234375 -12.796875 C 6.328125 -11.265625 5.875 -9.046875 5.875 -6.140625 L 5.875 -1.53125 C 6.914062 -0.832031 8.097656 -0.484375 9.421875 -0.484375 C 10.753906 -0.484375 11.867188 -1.140625 12.765625 -2.453125 C 13.660156 -3.765625 14.109375 -5.578125 14.109375 -7.890625 C 14.109375 -10.203125 13.75 -11.984375 13.03125 -13.234375 C 12.3125 -14.484375 11.453125 -15.109375 10.453125 -15.109375 Z M 10.453125 -15.109375" transform="translate(86.067 288.224)"/></g></g></g><g><g><g><path d="M 3.9375 -1.1875 L 3.9375 -14.890625 C 3.9375 -15.234375 3.765625 -15.40625 3.421875 -15.40625 L 1.671875 -15.40625 L 1.671875 -16.078125 L 3.5 -16.078125 C 4.988281 -16.078125 6.03125 -16.148438 6.625 -16.296875 L 6.625 -1.109375 C 6.625 -0.816406 6.796875 -0.671875 7.140625 -0.671875 L 8.890625 -0.671875 L 8.890625 0 L 1.671875 0 L 1.671875 -0.671875 L 3.421875 -0.671875 C 3.765625 -0.671875 3.9375 -0.84375 3.9375 -1.1875 Z M 4.03125 -20.1875 C 3.695312 -20.519531 3.53125 -20.9375 3.53125 -21.4375 C 3.53125 -21.9375 3.695312 -22.351562 4.03125 -22.6875 C 4.375 -23.019531 4.789062 -23.1875 5.28125 -23.1875 C 5.78125 -23.1875 6.195312 -23.019531 6.53125 -22.6875 C 6.863281 -22.351562 7.03125 -21.9375 7.03125 -21.4375 C 7.03125 -20.9375 6.863281 -20.519531 6.53125 -20.1875 C 6.195312 -19.851562 5.78125 -19.6875 5.28125 -19.6875 C 4.789062 -19.6875 4.375 -19.851562 4.03125 -20.1875 Z M 4.03125 -20.1875" transform="translate(108.25 288.224)"/></g></g></g><g><g><g><path d="M 16.828125 -10.875 L 16.828125 -1.109375 C 16.828125 -0.816406 17 -0.671875 17.34375 -0.671875 L 19.09375 -0.671875 L 19.09375 0 L 12.390625 0 L 12.390625 -0.671875 L 13.625 -0.671875 C 13.96875 -0.671875 14.140625 -0.816406 14.140625 -1.109375 L 14.140625 -11.359375 C 14.140625 -12.617188 13.859375 -13.550781 13.296875 -14.15625 C 12.742188 -14.769531 12.007812 -15.078125 11.09375 -15.078125 C 9.800781 -15.078125 8.734375 -14.3125 7.890625 -12.78125 C 7.046875 -11.257812 6.625 -9.070312 6.625 -6.21875 L 6.625 -1.1875 C 6.625 -0.84375 6.796875 -0.671875 7.140625 -0.671875 L 8.375 -0.671875 L 8.375 0 L 1.671875 0 L 1.671875 -0.671875 L 3.421875 -0.671875 C 3.765625 -0.671875 3.9375 -0.816406 3.9375 -1.109375 L 3.9375 -14.890625 C 3.9375 -15.234375 3.765625 -15.40625 3.421875 -15.40625 L 1.671875 -15.40625 L 1.671875 -16.078125 L 3.5 -16.078125 C 4.988281 -16.078125 6.03125 -16.148438 6.625 -16.296875 L 6.625 -11.234375 C 7.46875 -14.765625 9.328125 -16.53125 12.203125 -16.53125 C 13.492188 -16.53125 14.585938 -16.0625 15.484375 -15.125 C 16.378906 -14.195312 16.828125 -12.78125 16.828125 -10.875 Z M 16.828125 -10.875" transform="translate(122.022 288.224)"/></g></g></g><g><g><g><path d="M 9 -16.53125 C 10.71875 -16.53125 12.070312 -15.957031 13.0625 -14.8125 C 14.050781 -13.664062 14.546875 -11.988281 14.546875 -9.78125 C 14.546875 -9.34375 14.523438 -8.847656 14.484375 -8.296875 L 4.3125 -8.296875 L 4.3125 -8.046875 C 4.3125 -5.679688 4.738281 -3.820312 5.59375 -2.46875 C 6.457031 -1.125 7.5625 -0.453125 8.90625 -0.453125 C 10.257812 -0.453125 11.367188 -0.796875 12.234375 -1.484375 C 13.109375 -2.179688 13.707031 -3.175781 14.03125 -4.46875 L 14.734375 -4.3125 C 14.441406 -2.800781 13.757812 -1.628906 12.6875 -0.796875 C 11.625 0.0351562 10.394531 0.453125 9 0.453125 C 6.84375 0.453125 5.050781 -0.300781 3.625 -1.8125 C 2.195312 -3.332031 1.484375 -5.398438 1.484375 -8.015625 C 1.484375 -10.640625 2.203125 -12.710938 3.640625 -14.234375 C 5.085938 -15.765625 6.875 -16.53125 9 -16.53125 Z M 11.984375 -11.046875 C 11.984375 -14.097656 10.84375 -15.625 8.5625 -15.625 C 7.414062 -15.625 6.4375 -15.003906 5.625 -13.765625 C 4.820312 -12.523438 4.398438 -10.953125 4.359375 -9.046875 L 11.828125 -9.046875 C 11.929688 -9.890625 11.984375 -10.554688 11.984375 -11.046875 Z M 11.984375 -11.046875" transform="translate(146.178 288.224)"/></g></g></g><g><g><g><path d="M 5.140625 -20.03125 L 5.6875 -20.03125 L 5.6875 -16.078125 L 9.421875 -16.078125 L 9.421875 -15.40625 L 5.6875 -15.40625 L 5.6875 -2.796875 C 5.6875 -1.453125 6.0625 -0.78125 6.8125 -0.78125 C 7.15625 -0.78125 7.457031 -0.941406 7.71875 -1.265625 C 7.976562 -1.585938 8.109375 -1.957031 8.109375 -2.375 C 8.109375 -2.800781 8.070312 -3.203125 8 -3.578125 L 8.703125 -3.6875 C 8.804688 -3.3125 8.859375 -2.898438 8.859375 -2.453125 C 8.859375 -1.554688 8.585938 -0.847656 8.046875 -0.328125 C 7.515625 0.191406 6.816406 0.453125 5.953125 0.453125 C 5.085938 0.453125 4.378906 0.0976562 3.828125 -0.609375 C 3.285156 -1.316406 3.015625 -2.378906 3.015625 -3.796875 L 3.015625 -14.890625 C 3.015625 -15.234375 2.84375 -15.40625 2.5 -15.40625 L 0.75 -15.40625 L 0.75 -16.078125 L 2.5625 -16.078125 C 3.363281 -16.078125 4.222656 -17.394531 5.140625 -20.03125 Z M 5.140625 -20.03125" transform="translate(166.352 288.224)"/></g></g></g><g><g><g><path d="M 6.328125 -10.09375 L 10.203125 -8.640625 C 11.117188 -8.285156 11.816406 -7.753906 12.296875 -7.046875 C 12.785156 -6.347656 13.03125 -5.5625 13.03125 -4.6875 C 13.03125 -3.351562 12.492188 -2.160156 11.421875 -1.109375 C 10.359375 -0.0664062 8.925781 0.453125 7.125 0.453125 C 5.320312 0.453125 3.628906 0.113281 2.046875 -0.5625 C 2.191406 -1.15625 2.265625 -2.195312 2.265625 -3.6875 L 2.265625 -5.171875 L 2.9375 -5.171875 L 3.203125 -3.234375 C 3.421875 -1.378906 4.722656 -0.453125 7.109375 -0.453125 C 8.171875 -0.453125 9.054688 -0.78125 9.765625 -1.4375 C 10.472656 -2.09375 10.828125 -2.84375 10.828125 -3.6875 C 10.828125 -4.851562 10.117188 -5.695312 8.703125 -6.21875 L 4.84375 -7.671875 C 3.96875 -7.992188 3.304688 -8.5 2.859375 -9.1875 C 2.421875 -9.882812 2.203125 -10.664062 2.203125 -11.53125 C 2.203125 -12.851562 2.671875 -14.015625 3.609375 -15.015625 C 4.554688 -16.023438 5.742188 -16.53125 7.171875 -16.53125 C 8.597656 -16.53125 10.203125 -16.191406 11.984375 -15.515625 C 11.835938 -14.921875 11.765625 -13.878906 11.765625 -12.390625 L 11.765625 -10.90625 L 11.09375 -10.90625 L 10.828125 -12.84375 C 10.628906 -14.625 9.5 -15.515625 7.4375 -15.515625 C 6.519531 -15.515625 5.765625 -15.226562 5.171875 -14.65625 C 4.578125 -14.09375 4.28125 -13.425781 4.28125 -12.65625 C 4.28125 -11.46875 4.960938 -10.613281 6.328125 -10.09375 Z M 6.328125 -10.09375" transform="translate(180.273 288.224)"/></g></g></g><g><g><g><path d="M 9.796875 -23.9375 C 11.523438 -23.9375 12.875 -23.492188 13.84375 -22.609375 C 14.8125 -21.734375 15.296875 -20.660156 15.296875 -19.390625 C 15.296875 -18.128906 14.859375 -16.925781 13.984375 -15.78125 C 13.117188 -14.632812 11.894531 -13.765625 10.3125 -13.171875 L 14.96875 -6.625 L 16.890625 -11.578125 L 15 -11.578125 L 15 -12.25 L 20.6875 -12.25 L 20.6875 -11.578125 L 18.34375 -11.578125 C 18.125 -11.578125 17.953125 -11.398438 17.828125 -11.046875 L 15.671875 -5.65625 L 19.0625 -0.96875 C 19.175781 -0.769531 19.347656 -0.671875 19.578125 -0.671875 L 20.921875 -0.671875 L 20.921875 0 L 18.828125 0 C 17.617188 0 16.710938 0.0703125 16.109375 0.21875 L 14.109375 -2.640625 C 12.617188 -0.578125 10.582031 0.453125 8 0.453125 C 5.863281 0.453125 4.179688 -0.195312 2.953125 -1.5 C 1.722656 -2.8125 1.109375 -4.289062 1.109375 -5.9375 C 1.109375 -7.582031 1.609375 -9.015625 2.609375 -10.234375 C 3.617188 -11.453125 5.082031 -12.347656 7 -12.921875 L 5.84375 -14.59375 C 4.800781 -16.050781 4.28125 -17.507812 4.28125 -18.96875 C 4.28125 -20.4375 4.769531 -21.628906 5.75 -22.546875 C 6.726562 -23.472656 8.078125 -23.9375 9.796875 -23.9375 Z M 8.75 -1 C 10.6875 -1 12.273438 -1.84375 13.515625 -3.53125 L 7.59375 -12.0625 C 5.363281 -10.863281 4.25 -8.914062 4.25 -6.21875 C 4.25 -4.53125 4.679688 -3.238281 5.546875 -2.34375 C 6.410156 -1.445312 7.476562 -1 8.75 -1 Z M 9.75 -22.96875 C 7.664062 -22.96875 6.625 -21.9375 6.625 -19.875 C 6.625 -18.851562 7.054688 -17.738281 7.921875 -16.53125 L 9.75 -13.921875 C 10.769531 -14.421875 11.550781 -15.144531 12.09375 -16.09375 C 12.644531 -17.050781 12.921875 -18.066406 12.921875 -19.140625 C 12.921875 -20.222656 12.640625 -21.128906 12.078125 -21.859375 C 11.515625 -22.597656 10.738281 -22.96875 9.75 -22.96875 Z M 9.75 -22.96875" transform="translate(211.8 288.224)"/></g></g></g><g><g><g><path d="M 10.828125 -22.40625 L 10.828125 -1.109375 C 10.828125 -0.816406 11.003906 -0.671875 11.359375 -0.671875 L 14.59375 -0.671875 L 14.59375 0 L 4.015625 0 L 4.015625 -0.671875 L 7.25 -0.671875 C 7.601562 -0.671875 7.78125 -0.816406 7.78125 -1.109375 L 7.78125 -22.40625 L 2.984375 -22.40625 C 2.335938 -22.40625 1.988281 -22.132812 1.9375 -21.59375 L 1.375 -17.234375 L 0.515625 -17.234375 L 0.515625 -18.984375 C 0.515625 -21.160156 0.40625 -22.757812 0.1875 -23.78125 C 0.976562 -23.5625 2.351562 -23.453125 4.3125 -23.453125 L 14.296875 -23.453125 C 16.253906 -23.453125 17.628906 -23.5625 18.421875 -23.78125 C 18.203125 -22.757812 18.09375 -21.160156 18.09375 -18.984375 L 18.09375 -17.234375 L 17.234375 -17.234375 L 16.671875 -21.59375 C 16.617188 -22.132812 16.269531 -22.40625 15.625 -22.40625 Z M 10.828125 -22.40625" transform="translate(250.286 288.224)"/></g></g></g><g><g><g><path d="M 10.984375 -16.53125 C 11.953125 -16.53125 12.738281 -16.117188 13.34375 -15.296875 C 13.945312 -14.472656 14.25 -13.441406 14.25 -12.203125 C 14.25 -10.960938 13.742188 -10.34375 12.734375 -10.34375 C 12.128906 -10.34375 11.644531 -10.53125 11.28125 -10.90625 C 11.601562 -11.625 11.765625 -12.351562 11.765625 -13.09375 C 11.765625 -14.414062 11.21875 -15.078125 10.125 -15.078125 C 9.207031 -15.078125 8.394531 -14.3125 7.6875 -12.78125 C 6.976562 -11.257812 6.625 -9.046875 6.625 -6.140625 L 6.625 -1.1875 C 6.625 -0.84375 6.796875 -0.671875 7.140625 -0.671875 L 9.640625 -0.671875 L 9.640625 0 L 1.671875 0 L 1.671875 -0.671875 L 3.421875 -0.671875 C 3.765625 -0.671875 3.9375 -0.84375 3.9375 -1.1875 L 3.9375 -14.890625 C 3.9375 -15.234375 3.765625 -15.40625 3.421875 -15.40625 L 1.671875 -15.40625 L 1.671875 -16.078125 L 3.5 -16.078125 C 4.988281 -16.078125 6.03125 -16.148438 6.625 -16.296875 L 6.625 -11.53125 C 7.019531 -13.25 7.601562 -14.507812 8.375 -15.3125 C 9.144531 -16.125 10.015625 -16.53125 10.984375 -16.53125 Z M 10.984375 -16.53125" transform="translate(272.655 288.224)"/></g></g></g><g><g><g><path d="M 3.9375 -1.1875 L 3.9375 -14.890625 C 3.9375 -15.234375 3.765625 -15.40625 3.421875 -15.40625 L 1.671875 -15.40625 L 1.671875 -16.078125 L 3.5 -16.078125 C 4.988281 -16.078125 6.03125 -16.148438 6.625 -16.296875 L 6.625 -1.109375 C 6.625 -0.816406 6.796875 -0.671875 7.140625 -0.671875 L 8.890625 -0.671875 L 8.890625 0 L 1.671875 0 L 1.671875 -0.671875 L 3.421875 -0.671875 C 3.765625 -0.671875 3.9375 -0.84375 3.9375 -1.1875 Z M 4.03125 -20.1875 C 3.695312 -20.519531 3.53125 -20.9375 3.53125 -21.4375 C 3.53125 -21.9375 3.695312 -22.351562 4.03125 -22.6875 C 4.375 -23.019531 4.789062 -23.1875 5.28125 -23.1875 C 5.78125 -23.1875 6.195312 -23.019531 6.53125 -22.6875 C 6.863281 -22.351562 7.03125 -21.9375 7.03125 -21.4375 C 7.03125 -20.9375 6.863281 -20.519531 6.53125 -20.1875 C 6.195312 -19.851562 5.78125 -19.6875 5.28125 -19.6875 C 4.789062 -19.6875 4.375 -19.851562 4.03125 -20.1875 Z M 4.03125 -20.1875" transform="translate(290.856 288.224)"/></g></g></g><g><g><g><path d="M 26.28125 -10.875 L 26.28125 -1.109375 C 26.28125 -0.816406 26.453125 -0.671875 26.796875 -0.671875 L 28.546875 -0.671875 L 28.546875 0 L 21.84375 0 L 21.84375 -0.671875 L 23.078125 -0.671875 C 23.421875 -0.671875 23.59375 -0.816406 23.59375 -1.109375 L 23.59375 -11.359375 C 23.59375 -12.617188 23.332031 -13.550781 22.8125 -14.15625 C 22.289062 -14.769531 21.582031 -15.078125 20.6875 -15.078125 C 19.445312 -15.078125 18.429688 -14.273438 17.640625 -12.671875 C 16.847656 -11.066406 16.453125 -8.765625 16.453125 -5.765625 L 16.453125 -1.1875 C 16.453125 -0.84375 16.625 -0.671875 16.96875 -0.671875 L 18.71875 -0.671875 L 18.71875 0 L 12.015625 0 L 12.015625 -0.671875 L 13.25 -0.671875 C 13.59375 -0.671875 13.765625 -0.816406 13.765625 -1.109375 L 13.765625 -11.359375 C 13.765625 -12.617188 13.503906 -13.550781 12.984375 -14.15625 C 12.460938 -14.769531 11.757812 -15.078125 10.875 -15.078125 C 9.625 -15.078125 8.601562 -14.273438 7.8125 -12.671875 C 7.019531 -11.066406 6.625 -8.765625 6.625 -5.765625 L 6.625 -1.1875 C 6.625 -0.84375 6.796875 -0.671875 7.140625 -0.671875 L 8.375 -0.671875 L 8.375 0 L 1.671875 0 L 1.671875 -0.671875 L 3.421875 -0.671875 C 3.765625 -0.671875 3.9375 -0.816406 3.9375 -1.109375 L 3.9375 -14.890625 C 3.9375 -15.234375 3.765625 -15.40625 3.421875 -15.40625 L 1.671875 -15.40625 L 1.671875 -16.078125 L 3.5 -16.078125 C 4.988281 -16.078125 6.03125 -16.148438 6.625 -16.296875 L 6.625 -11.3125 C 7.445312 -14.789062 9.207031 -16.53125 11.90625 -16.53125 C 13.101562 -16.53125 14.140625 -16.09375 15.015625 -15.21875 C 15.898438 -14.351562 16.378906 -13.039062 16.453125 -11.28125 C 17.265625 -14.78125 19.023438 -16.53125 21.734375 -16.53125 C 22.972656 -16.53125 24.039062 -16.0625 24.9375 -15.125 C 25.832031 -14.195312 26.28125 -12.78125 26.28125 -10.875 Z M 26.28125 -10.875" transform="translate(304.628 288.224)"/></g></g></g></svg>