<svg xmlns="http://www.w3.org/2000/svg" width="375" viewBox="0 0 375 375" height="375" version="1.0"><defs><clipPath id="a"><path d="M 0 59 L 375 59 L 375 247.859375 L 0 247.859375 Z M 0 59"/></clipPath></defs><g clip-path="url(#a)"><path fill="#B27409" d="M 375.042969 244.597656 L 374.507812 200.6875 L 373.851562 156.777344 L 373.191406 200.6875 L 372.675781 243.378906 C 342.164062 242.945312 311.667969 242.816406 281.160156 242.566406 L 188.464844 241.933594 L 95.773438 241.625 L 6.136719 241.527344 L 6.007812 153.164062 L 5.6875 64.320312 L 132.980469 63.382812 C 154.636719 63.253906 176.28125 62.890625 197.9375 62.652344 L 230.40625 62.261719 L 262.878906 61.742188 L 230.40625 61.210938 L 197.9375 60.816406 C 176.28125 60.578125 154.636719 60.214844 132.980469 60.089844 L 3.066406 59.121094 L 0.476562 59.105469 L 0.460938 61.742188 L 0.125 153.164062 L 0 244.597656 L 0 247.667969 L 3.066406 247.667969 L 95.761719 247.570312 L 188.453125 247.261719 L 281.144531 246.628906 C 312.046875 246.378906 342.933594 246.25 373.835938 245.804688 L 375.042969 245.789062 Z M 375.042969 244.597656"/></g><path fill="#B27409" d="M 259.460938 111.382812 L 221.191406 149.671875 L 176.125 104.585938 C 175.550781 104.011719 174.765625 103.6875 173.953125 103.6875 L 120.234375 103.6875 C 120.234375 103.6875 120.234375 103.6875 120.21875 103.6875 C 119.378906 103.6875 118.609375 104.039062 118.046875 104.601562 L 24.835938 197.84375 C 23.632812 199.046875 23.632812 200.984375 24.835938 202.1875 C 25.4375 202.789062 26.222656 203.085938 27.007812 203.085938 C 27.792969 203.085938 28.578125 202.789062 29.179688 202.1875 L 120.234375 111.089844 L 210.542969 201.445312 C 211.117188 202.019531 211.902344 202.34375 212.714844 202.34375 L 266.4375 202.34375 C 267.683594 202.34375 268.789062 201.597656 269.265625 200.449219 C 269.742188 199.300781 269.476562 197.984375 268.609375 197.101562 L 225.53125 154.019531 L 261.632812 117.914062 L 345.625 201.949219 C 345.695312 202.046875 345.777344 202.132812 345.863281 202.214844 C 346.464844 202.804688 347.234375 203.113281 348.019531 203.113281 C 348.820312 203.113281 349.601562 202.804688 350.207031 202.203125 C 351.410156 200.996094 351.410156 199.0625 350.207031 197.855469 L 263.804688 111.410156 C 263.199219 110.808594 262.414062 110.515625 261.632812 110.515625 C 260.847656 110.515625 260.0625 110.796875 259.460938 111.382812 Z M 259.027344 196.203125 L 213.988281 196.203125 L 196.113281 178.320312 L 232.632812 175.671875 L 190.414062 172.617188 L 179.039062 161.234375 L 214.1875 158.683594 L 173.546875 155.742188 L 162.160156 144.347656 L 198.71875 141.699219 L 156.457031 138.644531 L 145.125 127.304688 L 180.859375 124.710938 L 139.5625 121.753906 L 127.644531 109.828125 L 172.679688 109.828125 L 219.019531 156.191406 Z M 259.027344 196.203125"/><path fill="#B27409" d="M 252.160156 148.707031 L 259.851562 148.707031 L 259.851562 156.402344 L 252.160156 156.402344 Z M 252.160156 148.707031"/><path fill="#B27409" d="M 263.410156 148.707031 L 271.101562 148.707031 L 271.101562 156.402344 L 263.410156 156.402344 Z M 263.410156 148.707031"/><path fill="#B27409" d="M 252.160156 159.945312 L 259.851562 159.945312 L 259.851562 167.640625 L 252.160156 167.640625 Z M 252.160156 159.945312"/><path fill="#B27409" d="M 263.410156 159.945312 L 271.101562 159.945312 L 271.101562 167.640625 L 263.410156 167.640625 Z M 263.410156 159.945312"/><path fill="#B27409" d="M 108.324219 151.929688 L 117.976562 151.929688 L 117.976562 161.585938 L 108.324219 161.585938 Z M 108.324219 151.929688"/><path fill="#B27409" d="M 122.402344 151.929688 L 132.054688 151.929688 L 132.054688 161.585938 L 122.402344 161.585938 Z M 122.402344 151.929688"/><path fill="#B27409" d="M 108.324219 166.015625 L 117.976562 166.015625 L 117.976562 175.671875 L 108.324219 175.671875 Z M 108.324219 166.015625"/><path fill="#B27409" d="M 122.402344 166.015625 L 132.054688 166.015625 L 132.054688 175.671875 L 122.402344 175.671875 Z M 122.402344 166.015625"/><g fill="#1C2120"><g><g><path d="M 2.34375 -35.15625 L 2.34375 -33.640625 L 7.03125 -33.640625 L 7.03125 -1.53125 L 2.34375 -1.53125 L 2.34375 0 L 18.515625 0 C 23.785156 0 28.125 -1.640625 31.53125 -4.921875 C 34.882812 -8.160156 36.5625 -12.378906 36.5625 -17.578125 C 36.5625 -24.296875 34.101562 -29.21875 29.1875 -32.34375 C 26.175781 -34.21875 22.675781 -35.15625 18.6875 -35.15625 Z M 18.515625 -33.640625 C 24.691406 -33.640625 28.539062 -30.828125 30.0625 -25.203125 C 30.644531 -23.128906 30.9375 -20.664062 30.9375 -17.8125 C 30.9375 -8.082031 27.617188 -2.710938 20.984375 -1.703125 C 20.234375 -1.585938 19.46875 -1.53125 18.6875 -1.53125 L 12.078125 -1.53125 L 12.078125 -33.640625 Z M 18.515625 -33.640625" transform="translate(120.96 239.928)"/></g></g></g><g fill="#1C2120"><g><g><path d="M 45.765625 -35.15625 L 36.390625 -35.15625 L 23.734375 -6.5 L 10.140625 -35.15625 L 1.765625 -35.15625 L 1.765625 -33.640625 L 6.453125 -33.640625 L 6.453125 -1.53125 L 1.765625 -1.53125 L 1.765625 0 L 13.484375 0 C 13.484375 -0.863281 13.171875 -1.351562 12.546875 -1.46875 C 12.347656 -1.507812 12.148438 -1.53125 11.953125 -1.53125 L 8.796875 -1.53125 L 8.796875 -26.71875 L 21.625 0.296875 L 22.859375 0.296875 L 36.390625 -29.890625 L 36.390625 -1.53125 L 31.703125 -1.53125 L 31.703125 0 L 45.765625 0 C 45.765625 -0.863281 45.453125 -1.351562 44.828125 -1.46875 C 44.628906 -1.507812 44.429688 -1.53125 44.234375 -1.53125 L 41.078125 -1.53125 L 41.078125 -33.640625 L 45.765625 -33.640625 Z M 45.765625 -35.15625" transform="translate(165.357 239.928)"/></g></g></g><g fill="#1C2120"><g><g><path d="M 32.109375 -2.703125 C 32.109375 -1.054688 32.34375 -0.113281 32.8125 0.125 C 33.082031 0.238281 33.453125 0.296875 33.921875 0.296875 L 33.921875 -10.78125 L 32.515625 -10.78125 C 30.523438 -4.332031 26.539062 -1.09375 20.5625 -1.0625 C 15.488281 -1.0625 12.035156 -3.617188 10.203125 -8.734375 C 9.296875 -11.234375 8.84375 -14.179688 8.84375 -17.578125 C 8.84375 -24.878906 10.859375 -29.84375 14.890625 -32.46875 C 16.640625 -33.5625 18.59375 -34.109375 20.75 -34.109375 C 25.625 -34.109375 29.15625 -31.800781 31.34375 -27.1875 C 31.738281 -26.363281 32.070312 -25.523438 32.34375 -24.671875 L 33.75 -24.671875 L 33.578125 -35.453125 C 32.710938 -35.453125 32.1875 -35.175781 32 -34.625 C 31.875 -34.15625 31.8125 -33.394531 31.8125 -32.34375 C 30.6875 -33.476562 28.753906 -34.394531 26.015625 -35.09375 C 24.222656 -35.53125 22.390625 -35.75 20.515625 -35.75 C 14.335938 -35.75 9.609375 -33.460938 6.328125 -28.890625 C 4.066406 -25.648438 2.9375 -21.921875 2.9375 -17.703125 C 2.9375 -12.578125 4.515625 -8.28125 7.671875 -4.8125 C 11.035156 -1.207031 15.410156 0.59375 20.796875 0.59375 C 24.742188 0.550781 28.515625 -0.546875 32.109375 -2.703125 Z M 32.109375 -2.703125" transform="translate(217.487 239.928)"/></g></g></g><g fill="#1C2120"><g><g><path d="M 11.90625 -17.953125 C 14 -17.953125 15.679688 -17.660156 16.953125 -17.078125 C 17.109375 -16.992188 17.203125 -16.921875 17.234375 -16.859375 C 17.273438 -16.796875 17.316406 -16.648438 17.359375 -16.421875 L 17.6875 -12.703125 C 17.6875 -12.640625 17.640625 -12.597656 17.546875 -12.578125 C 17.453125 -12.566406 17.390625 -12.597656 17.359375 -12.671875 C 16.867188 -14.210938 16.140625 -15.382812 15.171875 -16.1875 C 14.203125 -17 13 -17.40625 11.5625 -17.40625 C 10.195312 -17.40625 8.972656 -17.0625 7.890625 -16.375 C 6.804688 -15.6875 5.960938 -14.695312 5.359375 -13.40625 C 4.753906 -12.125 4.453125 -10.628906 4.453125 -8.921875 C 4.453125 -7.222656 4.769531 -5.710938 5.40625 -4.390625 C 6.050781 -3.066406 6.925781 -2.035156 8.03125 -1.296875 C 9.144531 -0.566406 10.398438 -0.203125 11.796875 -0.203125 C 13.171875 -0.203125 14.3125 -0.5625 15.21875 -1.28125 C 16.132812 -2.007812 16.941406 -3.160156 17.640625 -4.734375 C 17.660156 -4.796875 17.71875 -4.816406 17.8125 -4.796875 C 17.90625 -4.773438 17.953125 -4.75 17.953125 -4.71875 L 17.578125 -1.328125 C 17.554688 -1.097656 17.519531 -0.953125 17.46875 -0.890625 C 17.425781 -0.835938 17.332031 -0.773438 17.1875 -0.703125 C 15.488281 -0.00390625 13.691406 0.34375 11.796875 0.34375 C 9.785156 0.34375 7.988281 -0.0351562 6.40625 -0.796875 C 4.820312 -1.566406 3.585938 -2.640625 2.703125 -4.015625 C 1.816406 -5.398438 1.375 -6.988281 1.375 -8.78125 C 1.375 -10.539062 1.832031 -12.117188 2.75 -13.515625 C 3.675781 -14.910156 4.941406 -16 6.546875 -16.78125 C 8.148438 -17.5625 9.9375 -17.953125 11.90625 -17.953125 Z M 11.90625 -17.953125" transform="translate(27.727 273.443)"/></g></g></g><g fill="#1C2120"><g><g><path d="M 20.0625 -0.34375 C 20.15625 -0.34375 20.203125 -0.285156 20.203125 -0.171875 C 20.203125 -0.0546875 20.15625 0 20.0625 0 C 19.707031 0 19.132812 -0.0195312 18.34375 -0.0625 C 17.550781 -0.09375 16.976562 -0.109375 16.625 -0.109375 C 16.15625 -0.109375 15.597656 -0.09375 14.953125 -0.0625 C 14.316406 -0.0195312 13.816406 0 13.453125 0 C 13.378906 0 13.34375 -0.0546875 13.34375 -0.171875 C 13.34375 -0.285156 13.378906 -0.34375 13.453125 -0.34375 C 14.003906 -0.34375 14.40625 -0.398438 14.65625 -0.515625 C 14.914062 -0.640625 15.046875 -0.84375 15.046875 -1.125 C 15.046875 -1.40625 14.882812 -1.882812 14.5625 -2.5625 L 12.421875 -6.90625 L 5.59375 -6.90625 L 4.234375 -3.859375 C 3.984375 -3.296875 3.859375 -2.789062 3.859375 -2.34375 C 3.859375 -1.6875 4.09375 -1.1875 4.5625 -0.84375 C 5.039062 -0.507812 5.703125 -0.34375 6.546875 -0.34375 C 6.640625 -0.34375 6.6875 -0.285156 6.6875 -0.171875 C 6.6875 -0.0546875 6.640625 0 6.546875 0 C 6.203125 0 5.710938 -0.0195312 5.078125 -0.0625 C 4.359375 -0.09375 3.738281 -0.109375 3.21875 -0.109375 C 2.707031 -0.109375 2.113281 -0.09375 1.4375 -0.0625 C 0.832031 -0.0195312 0.332031 0 -0.0625 0 C -0.15625 0 -0.203125 -0.0546875 -0.203125 -0.171875 C -0.203125 -0.285156 -0.15625 -0.34375 -0.0625 -0.34375 C 0.46875 -0.34375 0.910156 -0.441406 1.265625 -0.640625 C 1.628906 -0.847656 1.976562 -1.21875 2.3125 -1.75 C 2.65625 -2.289062 3.0625 -3.085938 3.53125 -4.140625 L 9.59375 -17.8125 C 9.632812 -17.863281 9.71875 -17.890625 9.84375 -17.890625 C 9.976562 -17.890625 10.054688 -17.863281 10.078125 -17.8125 L 16.984375 -3.859375 C 17.640625 -2.503906 18.1875 -1.578125 18.625 -1.078125 C 19.070312 -0.585938 19.550781 -0.34375 20.0625 -0.34375 Z M 5.890625 -7.625 L 12.078125 -7.625 L 8.828125 -14.1875 Z M 5.890625 -7.625" transform="translate(52.815 273.443)"/></g></g></g><g fill="#1C2120"><g><g><path d="M 9.90625 -9.90625 C 11.445312 -9.738281 12.675781 -9.21875 13.59375 -8.34375 C 14.519531 -7.476562 14.984375 -6.410156 14.984375 -5.140625 C 14.984375 -4.160156 14.710938 -3.269531 14.171875 -2.46875 C 13.640625 -1.664062 12.898438 -1.035156 11.953125 -0.578125 C 11.003906 -0.117188 9.945312 0.109375 8.78125 0.109375 C 8.226562 0.109375 7.597656 0.0820312 6.890625 0.03125 C 6.640625 0.0078125 6.328125 -0.0078125 5.953125 -0.03125 C 5.578125 -0.0507812 5.15625 -0.0625 4.6875 -0.0625 L 2.65625 -0.03125 C 2.289062 -0.0078125 1.800781 0 1.1875 0 C 1.125 0 1.09375 -0.0546875 1.09375 -0.171875 C 1.09375 -0.285156 1.125 -0.34375 1.1875 -0.34375 C 1.789062 -0.34375 2.238281 -0.394531 2.53125 -0.5 C 2.832031 -0.601562 3.046875 -0.785156 3.171875 -1.046875 C 3.296875 -1.304688 3.359375 -1.71875 3.359375 -2.28125 L 3.359375 -15.34375 C 3.359375 -15.894531 3.296875 -16.304688 3.171875 -16.578125 C 3.046875 -16.847656 2.835938 -17.035156 2.546875 -17.140625 C 2.253906 -17.242188 1.8125 -17.296875 1.21875 -17.296875 C 1.175781 -17.296875 1.15625 -17.351562 1.15625 -17.46875 C 1.15625 -17.582031 1.175781 -17.640625 1.21875 -17.640625 L 2.6875 -17.609375 C 3.507812 -17.566406 4.175781 -17.546875 4.6875 -17.546875 C 5.207031 -17.546875 5.757812 -17.578125 6.34375 -17.640625 C 6.550781 -17.660156 6.800781 -17.675781 7.09375 -17.6875 C 7.382812 -17.707031 7.71875 -17.71875 8.09375 -17.71875 C 9.769531 -17.71875 11.050781 -17.394531 11.9375 -16.75 C 12.820312 -16.113281 13.265625 -15.210938 13.265625 -14.046875 C 13.265625 -13.148438 12.972656 -12.335938 12.390625 -11.609375 C 11.804688 -10.890625 10.976562 -10.320312 9.90625 -9.90625 Z M 7.625 -17.15625 C 7.019531 -17.15625 6.609375 -17.03125 6.390625 -16.78125 C 6.171875 -16.539062 6.0625 -16.046875 6.0625 -15.296875 L 6.0625 -9.9375 L 7.25 -9.90625 C 8.363281 -9.90625 9.203125 -10.265625 9.765625 -10.984375 C 10.328125 -11.710938 10.609375 -12.648438 10.609375 -13.796875 C 10.609375 -14.867188 10.351562 -15.695312 9.84375 -16.28125 C 9.34375 -16.863281 8.601562 -17.15625 7.625 -17.15625 Z M 8.328125 -0.53125 C 10.867188 -0.53125 12.140625 -1.835938 12.140625 -4.453125 C 12.140625 -5.890625 11.765625 -7.039062 11.015625 -7.90625 C 10.273438 -8.769531 9.191406 -9.203125 7.765625 -9.203125 C 7.085938 -9.203125 6.519531 -9.179688 6.0625 -9.140625 L 6.0625 -2.28125 C 6.0625 -1.851562 6.117188 -1.515625 6.234375 -1.265625 C 6.347656 -1.023438 6.5625 -0.84375 6.875 -0.71875 C 7.195312 -0.59375 7.679688 -0.53125 8.328125 -0.53125 Z M 8.328125 -0.53125" transform="translate(78.693 273.443)"/></g></g></g><g fill="#1C2120"><g><g><path d="M 6.15625 -2.28125 C 6.15625 -1.695312 6.203125 -1.273438 6.296875 -1.015625 C 6.390625 -0.753906 6.582031 -0.578125 6.875 -0.484375 C 7.164062 -0.390625 7.628906 -0.34375 8.265625 -0.34375 C 8.328125 -0.34375 8.359375 -0.285156 8.359375 -0.171875 C 8.359375 -0.0546875 8.328125 0 8.265625 0 C 7.660156 0 7.179688 -0.0078125 6.828125 -0.03125 L 4.734375 -0.0625 L 2.703125 -0.03125 C 2.347656 -0.0078125 1.859375 0 1.234375 0 C 1.179688 0 1.15625 -0.0546875 1.15625 -0.171875 C 1.15625 -0.285156 1.179688 -0.34375 1.234375 -0.34375 C 1.878906 -0.34375 2.347656 -0.390625 2.640625 -0.484375 C 2.929688 -0.578125 3.132812 -0.757812 3.25 -1.03125 C 3.363281 -1.300781 3.421875 -1.71875 3.421875 -2.28125 L 3.421875 -15.34375 C 3.421875 -15.914062 3.363281 -16.332031 3.25 -16.59375 C 3.132812 -16.851562 2.929688 -17.035156 2.640625 -17.140625 C 2.347656 -17.242188 1.878906 -17.296875 1.234375 -17.296875 C 1.179688 -17.296875 1.15625 -17.351562 1.15625 -17.46875 C 1.15625 -17.582031 1.179688 -17.640625 1.234375 -17.640625 L 2.703125 -17.609375 C 3.535156 -17.566406 4.210938 -17.546875 4.734375 -17.546875 C 5.316406 -17.546875 6.023438 -17.566406 6.859375 -17.609375 L 8.265625 -17.640625 C 8.328125 -17.640625 8.359375 -17.582031 8.359375 -17.46875 C 8.359375 -17.351562 8.328125 -17.296875 8.265625 -17.296875 C 7.648438 -17.296875 7.195312 -17.238281 6.90625 -17.125 C 6.613281 -17.007812 6.414062 -16.816406 6.3125 -16.546875 C 6.207031 -16.273438 6.15625 -15.859375 6.15625 -15.296875 Z M 6.15625 -2.28125" transform="translate(100.96 273.443)"/></g></g></g><g fill="#1C2120"><g><g><path d="M 20.234375 -17.640625 C 20.273438 -17.640625 20.296875 -17.582031 20.296875 -17.46875 C 20.296875 -17.351562 20.273438 -17.296875 20.234375 -17.296875 C 19.484375 -17.296875 18.898438 -17.023438 18.484375 -16.484375 C 18.066406 -15.953125 17.859375 -15.1875 17.859375 -14.1875 L 17.859375 0.390625 C 17.859375 0.453125 17.8125 0.488281 17.71875 0.5 C 17.625 0.519531 17.5625 0.515625 17.53125 0.484375 L 4.296875 -14.90625 L 4.296875 -3.421875 C 4.296875 -2.421875 4.488281 -1.65625 4.875 -1.125 C 5.269531 -0.601562 5.847656 -0.34375 6.609375 -0.34375 C 6.640625 -0.34375 6.65625 -0.285156 6.65625 -0.171875 C 6.65625 -0.0546875 6.640625 0 6.609375 0 C 6.097656 0 5.710938 -0.0078125 5.453125 -0.03125 L 3.953125 -0.0625 L 2.28125 -0.03125 C 1.976562 -0.0078125 1.546875 0 0.984375 0 C 0.929688 0 0.90625 -0.0546875 0.90625 -0.171875 C 0.90625 -0.285156 0.929688 -0.34375 0.984375 -0.34375 C 1.796875 -0.34375 2.421875 -0.601562 2.859375 -1.125 C 3.304688 -1.65625 3.53125 -2.421875 3.53125 -3.421875 L 3.53125 -15.78125 C 3 -16.34375 2.519531 -16.734375 2.09375 -16.953125 C 1.675781 -17.179688 1.242188 -17.296875 0.796875 -17.296875 C 0.753906 -17.296875 0.734375 -17.351562 0.734375 -17.46875 C 0.734375 -17.582031 0.753906 -17.640625 0.796875 -17.640625 L 1.921875 -17.609375 C 2.160156 -17.585938 2.507812 -17.578125 2.96875 -17.578125 L 4.765625 -17.609375 C 4.992188 -17.628906 5.269531 -17.640625 5.59375 -17.640625 C 5.738281 -17.640625 5.847656 -17.597656 5.921875 -17.515625 C 5.992188 -17.441406 6.109375 -17.296875 6.265625 -17.078125 L 6.9375 -16.171875 L 17.09375 -4.203125 L 17.09375 -14.1875 C 17.09375 -15.1875 16.894531 -15.953125 16.5 -16.484375 C 16.113281 -17.023438 15.550781 -17.296875 14.8125 -17.296875 C 14.78125 -17.296875 14.765625 -17.351562 14.765625 -17.46875 C 14.765625 -17.582031 14.78125 -17.640625 14.8125 -17.640625 L 15.96875 -17.609375 C 16.570312 -17.566406 17.070312 -17.546875 17.46875 -17.546875 C 17.84375 -17.546875 18.347656 -17.566406 18.984375 -17.609375 Z M 20.234375 -17.640625" transform="translate(116.34 273.443)"/></g></g></g><g fill="#1C2120"><g><g><path d="M 13.796875 -4.40625 C 13.796875 -4.4375 13.832031 -4.453125 13.90625 -4.453125 C 13.96875 -4.453125 14.019531 -4.4375 14.0625 -4.40625 C 14.113281 -4.382812 14.140625 -4.363281 14.140625 -4.34375 C 13.953125 -2.914062 13.859375 -1.609375 13.859375 -0.421875 C 13.859375 -0.273438 13.828125 -0.164062 13.765625 -0.09375 C 13.710938 -0.03125 13.601562 0 13.4375 0 L 1.1875 0 C 1.125 0 1.09375 -0.0546875 1.09375 -0.171875 C 1.09375 -0.285156 1.125 -0.34375 1.1875 -0.34375 C 1.820312 -0.34375 2.285156 -0.390625 2.578125 -0.484375 C 2.867188 -0.578125 3.066406 -0.757812 3.171875 -1.03125 C 3.273438 -1.300781 3.328125 -1.71875 3.328125 -2.28125 L 3.328125 -15.34375 C 3.328125 -15.914062 3.273438 -16.332031 3.171875 -16.59375 C 3.066406 -16.851562 2.863281 -17.035156 2.5625 -17.140625 C 2.257812 -17.242188 1.800781 -17.296875 1.1875 -17.296875 C 1.125 -17.296875 1.09375 -17.351562 1.09375 -17.46875 C 1.09375 -17.582031 1.125 -17.640625 1.1875 -17.640625 L 12.921875 -17.640625 C 13.109375 -17.640625 13.203125 -17.550781 13.203125 -17.375 L 13.265625 -13.71875 C 13.265625 -13.675781 13.210938 -13.644531 13.109375 -13.625 C 13.003906 -13.601562 12.941406 -13.625 12.921875 -13.6875 C 12.472656 -15.832031 11.164062 -16.90625 9 -16.90625 L 7.875 -16.90625 C 7.195312 -16.90625 6.71875 -16.78125 6.4375 -16.53125 C 6.15625 -16.289062 6.015625 -15.878906 6.015625 -15.296875 L 6.015625 -9.53125 L 8.71875 -9.53125 C 10.789062 -9.53125 11.828125 -10.226562 11.828125 -11.625 C 11.828125 -11.675781 11.878906 -11.703125 11.984375 -11.703125 C 12.085938 -11.703125 12.140625 -11.675781 12.140625 -11.625 L 12.109375 -9.171875 L 12.140625 -7.84375 C 12.171875 -7.238281 12.1875 -6.75 12.1875 -6.375 C 12.1875 -6.34375 12.128906 -6.328125 12.015625 -6.328125 C 11.910156 -6.328125 11.859375 -6.34375 11.859375 -6.375 C 11.859375 -7.988281 10.800781 -8.796875 8.6875 -8.796875 L 6.015625 -8.796875 L 6.015625 -2.40625 C 6.015625 -1.78125 6.128906 -1.34375 6.359375 -1.09375 C 6.597656 -0.851562 7.019531 -0.734375 7.625 -0.734375 L 9 -0.734375 C 11.519531 -0.734375 13.117188 -1.957031 13.796875 -4.40625 Z M 13.796875 -4.40625" transform="translate(142.812 273.443)"/></g></g></g><g fill="#1C2120"><g><g><path d="M 5.953125 -17.046875 C 4.804688 -17.046875 3.859375 -16.691406 3.109375 -15.984375 C 2.367188 -15.273438 1.800781 -14.207031 1.40625 -12.78125 C 1.40625 -12.75 1.351562 -12.734375 1.25 -12.734375 C 1.144531 -12.734375 1.09375 -12.757812 1.09375 -12.8125 C 1.175781 -13.539062 1.265625 -14.484375 1.359375 -15.640625 C 1.453125 -16.796875 1.5 -17.664062 1.5 -18.25 C 1.5 -18.351562 1.550781 -18.40625 1.65625 -18.40625 C 1.757812 -18.40625 1.8125 -18.351562 1.8125 -18.25 C 1.8125 -17.84375 2.335938 -17.640625 3.390625 -17.640625 C 5.003906 -17.578125 6.894531 -17.546875 9.0625 -17.546875 C 10.164062 -17.546875 11.335938 -17.566406 12.578125 -17.609375 L 14.5 -17.640625 C 15.21875 -17.640625 15.738281 -17.6875 16.0625 -17.78125 C 16.394531 -17.875 16.609375 -18.0625 16.703125 -18.34375 C 16.722656 -18.414062 16.78125 -18.453125 16.875 -18.453125 C 16.96875 -18.453125 17.015625 -18.414062 17.015625 -18.34375 C 16.960938 -17.757812 16.90625 -16.875 16.84375 -15.6875 C 16.789062 -14.5 16.765625 -13.539062 16.765625 -12.8125 C 16.765625 -12.757812 16.710938 -12.734375 16.609375 -12.734375 C 16.503906 -12.734375 16.441406 -12.757812 16.421875 -12.8125 C 16.234375 -14.257812 15.789062 -15.328125 15.09375 -16.015625 C 14.394531 -16.703125 13.457031 -17.046875 12.28125 -17.046875 C 11.75 -17.046875 11.351562 -17 11.09375 -16.90625 C 10.84375 -16.8125 10.675781 -16.644531 10.59375 -16.40625 C 10.507812 -16.175781 10.46875 -15.804688 10.46875 -15.296875 L 10.46875 -2.28125 C 10.46875 -1.695312 10.523438 -1.273438 10.640625 -1.015625 C 10.753906 -0.753906 10.976562 -0.578125 11.3125 -0.484375 C 11.65625 -0.390625 12.191406 -0.34375 12.921875 -0.34375 C 12.984375 -0.34375 13.015625 -0.285156 13.015625 -0.171875 C 13.015625 -0.0546875 12.984375 0 12.921875 0 C 12.265625 0 11.75 -0.0078125 11.375 -0.03125 L 9.0625 -0.0625 L 6.859375 -0.03125 C 6.460938 -0.0078125 5.914062 0 5.21875 0 C 5.175781 0 5.15625 -0.0546875 5.15625 -0.171875 C 5.15625 -0.285156 5.175781 -0.34375 5.21875 -0.34375 C 5.957031 -0.34375 6.5 -0.390625 6.84375 -0.484375 C 7.1875 -0.578125 7.421875 -0.757812 7.546875 -1.03125 C 7.671875 -1.300781 7.734375 -1.71875 7.734375 -2.28125 L 7.734375 -15.34375 C 7.734375 -15.832031 7.6875 -16.191406 7.59375 -16.421875 C 7.5 -16.648438 7.328125 -16.8125 7.078125 -16.90625 C 6.835938 -17 6.460938 -17.046875 5.953125 -17.046875 Z M 5.953125 -17.046875" transform="translate(164.062 273.443)"/></g></g></g><g fill="#1C2120"><g><g><path d="M 4.625 -14.640625 C 4.625 -13.941406 4.796875 -13.328125 5.140625 -12.796875 C 5.492188 -12.265625 5.925781 -11.800781 6.4375 -11.40625 C 6.957031 -11.007812 7.660156 -10.535156 8.546875 -9.984375 C 9.503906 -9.390625 10.257812 -8.875 10.8125 -8.4375 C 11.375 -8 11.847656 -7.460938 12.234375 -6.828125 C 12.617188 -6.203125 12.8125 -5.46875 12.8125 -4.625 C 12.8125 -3.664062 12.5625 -2.8125 12.0625 -2.0625 C 11.5625 -1.3125 10.851562 -0.722656 9.9375 -0.296875 C 9.03125 0.128906 7.992188 0.34375 6.828125 0.34375 C 6.035156 0.34375 5.21875 0.238281 4.375 0.03125 C 3.539062 -0.175781 2.910156 -0.429688 2.484375 -0.734375 C 2.316406 -0.847656 2.222656 -1.023438 2.203125 -1.265625 L 2.03125 -5.5625 L 2.03125 -5.59375 C 2.03125 -5.664062 2.078125 -5.707031 2.171875 -5.71875 C 2.265625 -5.726562 2.320312 -5.691406 2.34375 -5.609375 C 2.957031 -4.046875 3.664062 -2.765625 4.46875 -1.765625 C 5.269531 -0.773438 6.289062 -0.28125 7.53125 -0.28125 C 8.34375 -0.28125 9.019531 -0.5 9.5625 -0.9375 C 10.113281 -1.382812 10.390625 -2.125 10.390625 -3.15625 C 10.390625 -3.988281 10.203125 -4.710938 9.828125 -5.328125 C 9.460938 -5.953125 9.007812 -6.46875 8.46875 -6.875 C 7.9375 -7.289062 7.210938 -7.800781 6.296875 -8.40625 C 5.390625 -8.988281 4.679688 -9.484375 4.171875 -9.890625 C 3.671875 -10.296875 3.238281 -10.796875 2.875 -11.390625 C 2.519531 -11.984375 2.34375 -12.671875 2.34375 -13.453125 C 2.34375 -14.429688 2.613281 -15.257812 3.15625 -15.9375 C 3.707031 -16.613281 4.421875 -17.117188 5.296875 -17.453125 C 6.171875 -17.785156 7.085938 -17.953125 8.046875 -17.953125 C 8.679688 -17.953125 9.316406 -17.890625 9.953125 -17.765625 C 10.597656 -17.640625 11.132812 -17.484375 11.5625 -17.296875 C 11.851562 -17.179688 12 -17.003906 12 -16.765625 L 12.078125 -12.921875 C 12.078125 -12.867188 12.023438 -12.832031 11.921875 -12.8125 C 11.816406 -12.789062 11.753906 -12.8125 11.734375 -12.875 C 11.359375 -14.019531 10.851562 -15.054688 10.21875 -15.984375 C 9.59375 -16.910156 8.648438 -17.375 7.390625 -17.375 C 6.546875 -17.375 5.875 -17.128906 5.375 -16.640625 C 4.875 -16.160156 4.625 -15.492188 4.625 -14.640625 Z M 4.625 -14.640625" transform="translate(187.937 273.443)"/></g></g></g><g fill="#1C2120"><g><g><path d="M 20.203125 -0.34375 C 20.273438 -0.320312 20.304688 -0.257812 20.296875 -0.15625 C 20.296875 -0.0507812 20.265625 0 20.203125 0 L 16.078125 0 C 15.492188 0 14.472656 -0.523438 13.015625 -1.578125 C 11.578125 -0.296875 9.738281 0.34375 7.5 0.34375 C 6.238281 0.34375 5.1875 0.148438 4.34375 -0.234375 C 3.5 -0.617188 2.867188 -1.125 2.453125 -1.75 C 2.035156 -2.375 1.828125 -3.039062 1.828125 -3.75 C 1.828125 -4.726562 2.144531 -5.582031 2.78125 -6.3125 C 3.425781 -7.050781 4.367188 -7.878906 5.609375 -8.796875 C 5.347656 -9.210938 5.066406 -9.6875 4.765625 -10.21875 C 4.503906 -10.757812 4.300781 -11.269531 4.15625 -11.75 C 4.019531 -12.226562 3.953125 -12.734375 3.953125 -13.265625 C 3.953125 -14.203125 4.160156 -15.046875 4.578125 -15.796875 C 5.003906 -16.554688 5.609375 -17.148438 6.390625 -17.578125 C 7.171875 -18.015625 8.078125 -18.234375 9.109375 -18.234375 C 10.203125 -18.234375 11.082031 -17.992188 11.75 -17.515625 C 12.414062 -17.035156 12.75 -16.332031 12.75 -15.40625 C 12.75 -14.65625 12.535156 -13.972656 12.109375 -13.359375 C 11.691406 -12.742188 11.203125 -12.222656 10.640625 -11.796875 C 10.078125 -11.378906 9.226562 -10.796875 8.09375 -10.046875 C 9.46875 -7.953125 11.414062 -5.921875 13.9375 -3.953125 C 14.238281 -4.816406 14.390625 -5.75 14.390625 -6.75 C 14.390625 -7.707031 14.222656 -8.40625 13.890625 -8.84375 C 13.566406 -9.289062 13 -9.515625 12.1875 -9.515625 C 12.15625 -9.515625 12.132812 -9.566406 12.125 -9.671875 C 12.113281 -9.785156 12.132812 -9.84375 12.1875 -9.84375 L 18.65625 -9.875 C 18.707031 -9.875 18.734375 -9.816406 18.734375 -9.703125 C 18.734375 -9.585938 18.707031 -9.53125 18.65625 -9.53125 C 18.070312 -9.53125 17.628906 -9.46875 17.328125 -9.34375 C 17.023438 -9.226562 16.804688 -9.039062 16.671875 -8.78125 C 16.546875 -8.53125 16.40625 -8.125 16.25 -7.5625 C 15.757812 -5.851562 15.195312 -4.488281 14.5625 -3.46875 C 15.757812 -2.582031 16.851562 -1.867188 17.84375 -1.328125 C 18.832031 -0.796875 19.617188 -0.46875 20.203125 -0.34375 Z M 6.265625 -15.265625 C 6.265625 -13.816406 6.78125 -12.238281 7.8125 -10.53125 C 8.570312 -11.1875 9.15625 -11.859375 9.5625 -12.546875 C 9.976562 -13.242188 10.1875 -14.019531 10.1875 -14.875 C 10.1875 -15.695312 9.984375 -16.34375 9.578125 -16.8125 C 9.171875 -17.289062 8.640625 -17.53125 7.984375 -17.53125 C 6.835938 -17.53125 6.265625 -16.773438 6.265625 -15.265625 Z M 9.375 -0.875 C 10.632812 -0.875 11.695312 -1.234375 12.5625 -1.953125 C 12.1875 -2.234375 11.851562 -2.484375 11.5625 -2.703125 C 10.53125 -3.535156 9.515625 -4.441406 8.515625 -5.421875 C 7.523438 -6.410156 6.660156 -7.394531 5.921875 -8.375 C 4.847656 -7.394531 4.3125 -6.320312 4.3125 -5.15625 C 4.3125 -4.40625 4.519531 -3.703125 4.9375 -3.046875 C 5.351562 -2.390625 5.945312 -1.863281 6.71875 -1.46875 C 7.488281 -1.070312 8.375 -0.875 9.375 -0.875 Z M 9.375 -0.875" transform="translate(220.477 273.443)"/></g></g></g><g fill="#1C2120"><g><g><path d="M 5.953125 -17.046875 C 4.804688 -17.046875 3.859375 -16.691406 3.109375 -15.984375 C 2.367188 -15.273438 1.800781 -14.207031 1.40625 -12.78125 C 1.40625 -12.75 1.351562 -12.734375 1.25 -12.734375 C 1.144531 -12.734375 1.09375 -12.757812 1.09375 -12.8125 C 1.175781 -13.539062 1.265625 -14.484375 1.359375 -15.640625 C 1.453125 -16.796875 1.5 -17.664062 1.5 -18.25 C 1.5 -18.351562 1.550781 -18.40625 1.65625 -18.40625 C 1.757812 -18.40625 1.8125 -18.351562 1.8125 -18.25 C 1.8125 -17.84375 2.335938 -17.640625 3.390625 -17.640625 C 5.003906 -17.578125 6.894531 -17.546875 9.0625 -17.546875 C 10.164062 -17.546875 11.335938 -17.566406 12.578125 -17.609375 L 14.5 -17.640625 C 15.21875 -17.640625 15.738281 -17.6875 16.0625 -17.78125 C 16.394531 -17.875 16.609375 -18.0625 16.703125 -18.34375 C 16.722656 -18.414062 16.78125 -18.453125 16.875 -18.453125 C 16.96875 -18.453125 17.015625 -18.414062 17.015625 -18.34375 C 16.960938 -17.757812 16.90625 -16.875 16.84375 -15.6875 C 16.789062 -14.5 16.765625 -13.539062 16.765625 -12.8125 C 16.765625 -12.757812 16.710938 -12.734375 16.609375 -12.734375 C 16.503906 -12.734375 16.441406 -12.757812 16.421875 -12.8125 C 16.234375 -14.257812 15.789062 -15.328125 15.09375 -16.015625 C 14.394531 -16.703125 13.457031 -17.046875 12.28125 -17.046875 C 11.75 -17.046875 11.351562 -17 11.09375 -16.90625 C 10.84375 -16.8125 10.675781 -16.644531 10.59375 -16.40625 C 10.507812 -16.175781 10.46875 -15.804688 10.46875 -15.296875 L 10.46875 -2.28125 C 10.46875 -1.695312 10.523438 -1.273438 10.640625 -1.015625 C 10.753906 -0.753906 10.976562 -0.578125 11.3125 -0.484375 C 11.65625 -0.390625 12.191406 -0.34375 12.921875 -0.34375 C 12.984375 -0.34375 13.015625 -0.285156 13.015625 -0.171875 C 13.015625 -0.0546875 12.984375 0 12.921875 0 C 12.265625 0 11.75 -0.0078125 11.375 -0.03125 L 9.0625 -0.0625 L 6.859375 -0.03125 C 6.460938 -0.0078125 5.914062 0 5.21875 0 C 5.175781 0 5.15625 -0.0546875 5.15625 -0.171875 C 5.15625 -0.285156 5.175781 -0.34375 5.21875 -0.34375 C 5.957031 -0.34375 6.5 -0.390625 6.84375 -0.484375 C 7.1875 -0.578125 7.421875 -0.757812 7.546875 -1.03125 C 7.671875 -1.300781 7.734375 -1.71875 7.734375 -2.28125 L 7.734375 -15.34375 C 7.734375 -15.832031 7.6875 -16.191406 7.59375 -16.421875 C 7.5 -16.648438 7.328125 -16.8125 7.078125 -16.90625 C 6.835938 -17 6.460938 -17.046875 5.953125 -17.046875 Z M 5.953125 -17.046875" transform="translate(258.745 273.443)"/></g></g></g><g fill="#1C2120"><g><g><path d="M 19.71875 -0.34375 C 19.78125 -0.34375 19.8125 -0.285156 19.8125 -0.171875 C 19.8125 -0.0546875 19.78125 0 19.71875 0 L 15.1875 0 C 14.75 0 13.941406 -0.75 12.765625 -2.25 C 11.585938 -3.757812 10.164062 -5.867188 8.5 -8.578125 C 8.082031 -8.535156 7.757812 -8.515625 7.53125 -8.515625 C 7.113281 -8.515625 6.625 -8.535156 6.0625 -8.578125 L 6.0625 -2.28125 C 6.0625 -1.695312 6.113281 -1.273438 6.21875 -1.015625 C 6.320312 -0.753906 6.519531 -0.578125 6.8125 -0.484375 C 7.101562 -0.390625 7.570312 -0.34375 8.21875 -0.34375 C 8.25 -0.34375 8.265625 -0.285156 8.265625 -0.171875 C 8.265625 -0.0546875 8.25 0 8.21875 0 C 7.59375 0 7.109375 -0.0078125 6.765625 -0.03125 L 4.6875 -0.0625 L 2.65625 -0.03125 C 2.289062 -0.0078125 1.800781 0 1.1875 0 C 1.125 0 1.09375 -0.0546875 1.09375 -0.171875 C 1.09375 -0.285156 1.125 -0.34375 1.1875 -0.34375 C 1.820312 -0.34375 2.285156 -0.390625 2.578125 -0.484375 C 2.867188 -0.578125 3.070312 -0.757812 3.1875 -1.03125 C 3.300781 -1.300781 3.359375 -1.71875 3.359375 -2.28125 L 3.359375 -15.34375 C 3.359375 -15.914062 3.304688 -16.332031 3.203125 -16.59375 C 3.097656 -16.851562 2.894531 -17.035156 2.59375 -17.140625 C 2.289062 -17.242188 1.832031 -17.296875 1.21875 -17.296875 C 1.175781 -17.296875 1.15625 -17.351562 1.15625 -17.46875 C 1.15625 -17.582031 1.175781 -17.640625 1.21875 -17.640625 L 2.6875 -17.609375 C 3.507812 -17.566406 4.175781 -17.546875 4.6875 -17.546875 C 5.300781 -17.546875 5.976562 -17.578125 6.71875 -17.640625 C 6.957031 -17.660156 7.25 -17.675781 7.59375 -17.6875 C 7.945312 -17.707031 8.34375 -17.71875 8.78125 -17.71875 C 10.414062 -17.71875 11.675781 -17.394531 12.5625 -16.75 C 13.457031 -16.113281 13.90625 -15.222656 13.90625 -14.078125 C 13.90625 -13.046875 13.617188 -12.113281 13.046875 -11.28125 C 12.472656 -10.457031 11.707031 -9.800781 10.75 -9.3125 C 12.289062 -7.03125 13.578125 -5.25 14.609375 -3.96875 C 15.648438 -2.695312 16.566406 -1.773438 17.359375 -1.203125 C 18.160156 -0.628906 18.945312 -0.34375 19.71875 -0.34375 Z M 6.0625 -9.34375 C 6.519531 -9.269531 7.066406 -9.234375 7.703125 -9.234375 C 8.921875 -9.234375 9.796875 -9.535156 10.328125 -10.140625 C 10.859375 -10.753906 11.125 -11.738281 11.125 -13.09375 C 11.125 -14.613281 10.863281 -15.675781 10.34375 -16.28125 C 9.820312 -16.882812 9.070312 -17.1875 8.09375 -17.1875 C 7.363281 -17.1875 6.84375 -17.046875 6.53125 -16.765625 C 6.21875 -16.492188 6.0625 -16.003906 6.0625 -15.296875 Z M 6.0625 -9.34375" transform="translate(282.62 273.443)"/></g></g></g><g fill="#1C2120"><g><g><path d="M 6.15625 -2.28125 C 6.15625 -1.695312 6.203125 -1.273438 6.296875 -1.015625 C 6.390625 -0.753906 6.582031 -0.578125 6.875 -0.484375 C 7.164062 -0.390625 7.628906 -0.34375 8.265625 -0.34375 C 8.328125 -0.34375 8.359375 -0.285156 8.359375 -0.171875 C 8.359375 -0.0546875 8.328125 0 8.265625 0 C 7.660156 0 7.179688 -0.0078125 6.828125 -0.03125 L 4.734375 -0.0625 L 2.703125 -0.03125 C 2.347656 -0.0078125 1.859375 0 1.234375 0 C 1.179688 0 1.15625 -0.0546875 1.15625 -0.171875 C 1.15625 -0.285156 1.179688 -0.34375 1.234375 -0.34375 C 1.878906 -0.34375 2.347656 -0.390625 2.640625 -0.484375 C 2.929688 -0.578125 3.132812 -0.757812 3.25 -1.03125 C 3.363281 -1.300781 3.421875 -1.71875 3.421875 -2.28125 L 3.421875 -15.34375 C 3.421875 -15.914062 3.363281 -16.332031 3.25 -16.59375 C 3.132812 -16.851562 2.929688 -17.035156 2.640625 -17.140625 C 2.347656 -17.242188 1.878906 -17.296875 1.234375 -17.296875 C 1.179688 -17.296875 1.15625 -17.351562 1.15625 -17.46875 C 1.15625 -17.582031 1.179688 -17.640625 1.234375 -17.640625 L 2.703125 -17.609375 C 3.535156 -17.566406 4.210938 -17.546875 4.734375 -17.546875 C 5.316406 -17.546875 6.023438 -17.566406 6.859375 -17.609375 L 8.265625 -17.640625 C 8.328125 -17.640625 8.359375 -17.582031 8.359375 -17.46875 C 8.359375 -17.351562 8.328125 -17.296875 8.265625 -17.296875 C 7.648438 -17.296875 7.195312 -17.238281 6.90625 -17.125 C 6.613281 -17.007812 6.414062 -16.816406 6.3125 -16.546875 C 6.207031 -16.273438 6.15625 -15.859375 6.15625 -15.296875 Z M 6.15625 -2.28125" transform="translate(307.906 273.443)"/></g></g></g><g fill="#1C2120"><g><g><path d="M 23.3125 -0.34375 C 23.34375 -0.34375 23.359375 -0.285156 23.359375 -0.171875 C 23.359375 -0.0546875 23.34375 0 23.3125 0 C 22.6875 0 22.1875 -0.0078125 21.8125 -0.03125 L 19.78125 -0.0625 L 17.8125 -0.03125 C 17.46875 -0.0078125 16.984375 0 16.359375 0 C 16.328125 0 16.3125 -0.0546875 16.3125 -0.171875 C 16.3125 -0.285156 16.328125 -0.34375 16.359375 -0.34375 C 17.191406 -0.34375 17.75 -0.4375 18.03125 -0.625 C 18.3125 -0.8125 18.453125 -1.207031 18.453125 -1.8125 L 18.421875 -2.28125 L 17.859375 -14.25 L 11.859375 -0.203125 C 11.816406 -0.117188 11.738281 -0.078125 11.625 -0.078125 C 11.53125 -0.078125 11.445312 -0.117188 11.375 -0.203125 L 4.3125 -14.140625 L 4.0625 -3.421875 C 4.039062 -2.421875 4.234375 -1.65625 4.640625 -1.125 C 5.046875 -0.601562 5.65625 -0.34375 6.46875 -0.34375 C 6.519531 -0.34375 6.546875 -0.285156 6.546875 -0.171875 C 6.546875 -0.0546875 6.519531 0 6.46875 0 C 5.957031 0 5.5625 -0.0078125 5.28125 -0.03125 L 3.71875 -0.0625 L 2.0625 -0.03125 C 1.78125 -0.0078125 1.382812 0 0.875 0 C 0.820312 0 0.796875 -0.0546875 0.796875 -0.171875 C 0.796875 -0.285156 0.820312 -0.34375 0.875 -0.34375 C 1.644531 -0.34375 2.238281 -0.601562 2.65625 -1.125 C 3.082031 -1.65625 3.304688 -2.421875 3.328125 -3.421875 L 3.578125 -15.546875 C 3.242188 -16.148438 2.875 -16.59375 2.46875 -16.875 C 2.0625 -17.15625 1.597656 -17.296875 1.078125 -17.296875 C 1.015625 -17.296875 0.984375 -17.351562 0.984375 -17.46875 C 0.984375 -17.582031 1.015625 -17.640625 1.078125 -17.640625 L 2.28125 -17.609375 C 2.53125 -17.585938 2.851562 -17.578125 3.25 -17.578125 L 4.578125 -17.609375 C 4.722656 -17.628906 4.910156 -17.640625 5.140625 -17.640625 C 5.378906 -17.640625 5.570312 -17.546875 5.71875 -17.359375 C 5.875 -17.179688 6.113281 -16.785156 6.4375 -16.171875 L 12.640625 -4.0625 L 18.25 -16.9375 C 18.363281 -17.195312 18.488281 -17.378906 18.625 -17.484375 C 18.757812 -17.585938 18.921875 -17.640625 19.109375 -17.640625 C 19.234375 -17.640625 19.398438 -17.628906 19.609375 -17.609375 C 19.816406 -17.585938 20.070312 -17.578125 20.375 -17.578125 L 21.890625 -17.609375 C 22.140625 -17.628906 22.507812 -17.640625 23 -17.640625 C 23.039062 -17.640625 23.0625 -17.582031 23.0625 -17.46875 C 23.0625 -17.351562 23.039062 -17.296875 23 -17.296875 C 22.09375 -17.296875 21.4375 -17.128906 21.03125 -16.796875 C 20.632812 -16.472656 20.453125 -15.9375 20.484375 -15.1875 L 21.109375 -2.28125 C 21.140625 -1.695312 21.210938 -1.273438 21.328125 -1.015625 C 21.441406 -0.753906 21.640625 -0.578125 21.921875 -0.484375 C 22.203125 -0.390625 22.664062 -0.34375 23.3125 -0.34375 Z M 23.3125 -0.34375" transform="translate(323.287 273.443)"/></g></g></g></svg>