<svg xmlns="http://www.w3.org/2000/svg" width="375" viewBox="0 0 375 375" height="375" version="1.0"><defs><clipPath id="a"><path d="M 18 114 L 99 114 L 99 200.234375 L 18 200.234375 Z M 18 114"/></clipPath><clipPath id="b"><path d="M 96 101.234375 L 240 101.234375 L 240 190 L 96 190 Z M 96 101.234375"/></clipPath></defs><g clip-path="url(#a)"><path d="M 18.003906 198.066406 L 86.136719 114.238281 L 98.457031 126.523438 L 46.996094 188.671875 L 48.445312 200.234375 Z M 18.003906 198.066406" fill-rule="evenodd"/></g><path d="M 357.9375 197.34375 L 313 141.699219 L 304.300781 149.648438 L 339.09375 190.839844 L 337.640625 198.789062 Z M 357.9375 197.34375" fill-rule="evenodd"/><path fill="#FFCE6D" d="M 305.75 133.027344 L 253.566406 196.621094 L 172.386719 195.898438 L 216.601562 150.371094 Z M 305.75 133.027344" fill-rule="evenodd"/><g clip-path="url(#b)"><path fill="#ED5B2D" d="M 186.882812 131.582031 L 175.289062 126.523438 L 175.289062 117.128906 L 96.285156 101.957031 L 168.039062 189.394531 L 212.253906 143.144531 L 239.792969 138.085938 L 229.648438 127.96875 L 197.757812 121.464844 L 197.757812 101.234375 L 186.882812 101.234375 Z M 186.882812 131.582031" fill-rule="evenodd"/></g><path d="M 104.257812 183.613281 L 104.257812 166.992188 L 89.035156 166.992188 L 89.035156 183.613281 Z M 89.035156 164.101562 L 104.257812 164.101562 L 104.257812 148.203125 C 96.285156 148.925781 89.761719 155.429688 89.035156 164.101562 Z M 107.878906 164.101562 L 123.101562 164.101562 C 122.375 156.152344 115.855469 148.925781 107.878906 148.203125 Z M 123.101562 166.992188 L 107.878906 166.992188 L 107.878906 183.613281 L 123.101562 183.613281 Z M 123.101562 166.992188" fill-rule="evenodd"/><path d="M 297.777344 186.503906 L 297.777344 176.386719 L 288.355469 176.386719 L 288.355469 186.503906 Z M 288.355469 174.941406 L 297.777344 174.941406 L 297.777344 165.546875 C 292.703125 166.269531 289.082031 169.882812 288.355469 174.941406 Z M 299.226562 174.941406 L 308.652344 174.941406 C 307.925781 169.882812 304.300781 166.269531 299.226562 165.546875 Z M 308.652344 176.386719 L 299.226562 176.386719 L 299.226562 186.503906 L 308.652344 186.503906 Z M 308.652344 176.386719" fill-rule="evenodd"/><g fill="#ED5B2D"><g><g><path d="M 5.015625 0 C 4.285156 0 3.921875 -0.363281 3.921875 -1.09375 L 3.921875 -43.9375 C 3.921875 -44.664062 4.285156 -45.03125 5.015625 -45.03125 L 20.78125 -45.03125 C 24 -45.03125 26.816406 -44.460938 29.234375 -43.328125 C 31.660156 -42.191406 33.535156 -40.59375 34.859375 -38.53125 C 36.191406 -36.46875 36.859375 -34.085938 36.859375 -31.390625 L 36.859375 -13.640625 C 36.859375 -10.929688 36.191406 -8.546875 34.859375 -6.484375 C 33.535156 -4.429688 31.660156 -2.835938 29.234375 -1.703125 C 26.816406 -0.566406 24 0 20.78125 0 Z M 13 -8.171875 C 13 -7.910156 13.125 -7.78125 13.375 -7.78125 L 21.09375 -7.78125 C 23.070312 -7.78125 24.671875 -8.441406 25.890625 -9.765625 C 27.109375 -11.097656 27.742188 -12.878906 27.796875 -15.109375 L 27.796875 -29.90625 C 27.796875 -32.132812 27.179688 -33.914062 25.953125 -35.25 C 24.734375 -36.582031 23.09375 -37.25 21.03125 -37.25 L 13.375 -37.25 C 13.125 -37.25 13 -37.117188 13 -36.859375 Z M 13 -8.171875" transform="translate(125.624 245.235)"/></g></g></g><g fill="#ED5B2D"><g><g><path d="M 5.078125 0 C 4.347656 0 3.984375 -0.363281 3.984375 -1.09375 L 3.984375 -43.9375 C 3.984375 -44.664062 4.347656 -45.03125 5.078125 -45.03125 L 11.96875 -45.03125 C 12.519531 -45.03125 12.945312 -44.796875 13.25 -44.328125 L 22.578125 -29.265625 C 22.660156 -29.140625 22.753906 -29.078125 22.859375 -29.078125 C 22.972656 -29.078125 23.050781 -29.140625 23.09375 -29.265625 L 32.546875 -44.328125 C 32.847656 -44.796875 33.28125 -45.03125 33.84375 -45.03125 L 40.71875 -45.03125 C 41.445312 -45.03125 41.8125 -44.664062 41.8125 -43.9375 L 41.8125 -1.09375 C 41.8125 -0.363281 41.445312 0 40.71875 0 L 33.84375 0 C 33.113281 0 32.75 -0.363281 32.75 -1.09375 L 32.75 -28.953125 C 32.75 -29.117188 32.691406 -29.222656 32.578125 -29.265625 C 32.472656 -29.304688 32.378906 -29.242188 32.296875 -29.078125 L 25.796875 -18.46875 C 25.492188 -17.988281 25.066406 -17.75 24.515625 -17.75 L 21.234375 -17.75 C 20.671875 -17.75 20.238281 -17.988281 19.9375 -18.46875 L 13.515625 -29.078125 C 13.421875 -29.242188 13.320312 -29.304688 13.21875 -29.265625 C 13.113281 -29.222656 13.0625 -29.117188 13.0625 -28.953125 L 13.0625 -1.09375 C 13.0625 -0.363281 12.695312 0 11.96875 0 Z M 5.078125 0" transform="translate(165.376 245.235)"/></g></g></g><g fill="#ED5B2D"><g><g><path d="M 19.75 0.515625 C 16.40625 0.515625 13.46875 -0.132812 10.9375 -1.4375 C 8.40625 -2.75 6.453125 -4.582031 5.078125 -6.9375 C 3.703125 -9.300781 3.015625 -12.023438 3.015625 -15.109375 L 3.015625 -29.984375 C 3.015625 -33.066406 3.703125 -35.785156 5.078125 -38.140625 C 6.453125 -40.503906 8.40625 -42.328125 10.9375 -43.609375 C 13.46875 -44.898438 16.40625 -45.546875 19.75 -45.546875 C 23.050781 -45.546875 25.957031 -44.929688 28.46875 -43.703125 C 30.976562 -42.484375 32.925781 -40.75 34.3125 -38.5 C 35.707031 -36.25 36.40625 -33.644531 36.40625 -30.6875 C 36.40625 -30.300781 36.0625 -30.066406 35.375 -29.984375 L 28.5 -29.53125 L 28.234375 -29.53125 C 27.640625 -29.53125 27.34375 -29.632812 27.34375 -29.84375 L 27.34375 -30.234375 C 27.34375 -32.503906 26.644531 -34.328125 25.25 -35.703125 C 23.851562 -37.078125 22.019531 -37.765625 19.75 -37.765625 C 17.4375 -37.765625 15.582031 -37.078125 14.1875 -35.703125 C 12.789062 -34.328125 12.09375 -32.503906 12.09375 -30.234375 L 12.09375 -14.734375 C 12.09375 -12.503906 12.789062 -10.703125 14.1875 -9.328125 C 15.582031 -7.953125 17.4375 -7.265625 19.75 -7.265625 C 22.019531 -7.265625 23.851562 -7.953125 25.25 -9.328125 C 26.644531 -10.703125 27.34375 -12.503906 27.34375 -14.734375 C 27.34375 -14.941406 27.4375 -15.117188 27.625 -15.265625 C 27.820312 -15.421875 28.09375 -15.476562 28.4375 -15.4375 L 35.3125 -15.109375 C 36.039062 -15.023438 36.40625 -14.921875 36.40625 -14.796875 L 36.40625 -14.46875 C 36.40625 -11.507812 35.707031 -8.894531 34.3125 -6.625 C 32.925781 -4.351562 30.976562 -2.59375 28.46875 -1.34375 C 25.957031 -0.101562 23.050781 0.515625 19.75 0.515625 Z M 19.75 0.515625" transform="translate(211.111 245.235)"/></g></g></g><g><g><g><path d="M 15.578125 0 L 15.546875 -0.4375 C 15.523438 -0.875 15.363281 -1.09375 15.0625 -1.09375 C 14.894531 -1.09375 14.59375 -0.976562 14.15625 -0.75 C 12.800781 0 11.4375 0.375 10.0625 0.375 C 7.4375 0.375 5.285156 -0.53125 3.609375 -2.34375 C 1.929688 -4.15625 1.09375 -6.648438 1.09375 -9.828125 C 1.09375 -13.003906 1.921875 -15.5 3.578125 -17.3125 C 5.234375 -19.132812 7.394531 -20.046875 10.0625 -20.046875 C 11.414062 -20.046875 12.769531 -19.703125 14.125 -19.015625 C 14.5625 -18.785156 14.875 -18.671875 15.0625 -18.671875 C 15.363281 -18.671875 15.523438 -18.890625 15.546875 -19.328125 L 15.578125 -19.859375 L 16.171875 -19.859375 L 16.171875 -14.46875 L 15.609375 -14.46875 C 15.429688 -16.0625 14.835938 -17.238281 13.828125 -18 C 12.816406 -18.757812 11.5625 -19.140625 10.0625 -19.140625 C 8.164062 -19.140625 6.640625 -18.304688 5.484375 -16.640625 C 4.328125 -14.984375 3.75 -12.707031 3.75 -9.8125 C 3.75 -6.914062 4.332031 -4.644531 5.5 -3 C 6.664062 -1.351562 8.1875 -0.53125 10.0625 -0.53125 C 11.5625 -0.53125 12.816406 -0.910156 13.828125 -1.671875 C 14.835938 -2.429688 15.429688 -3.613281 15.609375 -5.21875 L 16.171875 -5.21875 L 16.171875 0 Z M 15.578125 0" transform="translate(64.64 278.324)"/></g></g></g><g><g><g><path d="M 8.9375 -7.28125 L 8.96875 -8.375 L 8.96875 -9.46875 C 8.96875 -11.90625 8.175781 -13.125 6.59375 -13.125 C 5.90625 -13.125 5.367188 -12.890625 4.984375 -12.421875 C 4.597656 -11.953125 4.40625 -11.40625 4.40625 -10.78125 C 4.40625 -10.15625 4.488281 -9.613281 4.65625 -9.15625 C 4.300781 -8.84375 3.8125 -8.6875 3.1875 -8.6875 C 2.5625 -8.6875 2.25 -9.195312 2.25 -10.21875 C 2.25 -11.238281 2.648438 -12.101562 3.453125 -12.8125 C 4.253906 -13.519531 5.394531 -13.875 6.875 -13.875 C 9.769531 -13.875 11.21875 -12.164062 11.21875 -8.75 L 11.21875 -2.34375 C 11.21875 -1.21875 11.53125 -0.65625 12.15625 -0.65625 C 12.445312 -0.65625 12.703125 -0.789062 12.921875 -1.0625 C 13.140625 -1.332031 13.25 -1.644531 13.25 -2 C 13.25 -2.351562 13.21875 -2.6875 13.15625 -3 L 13.75 -3.09375 C 13.832031 -2.78125 13.875 -2.4375 13.875 -2.0625 C 13.875 -1.3125 13.648438 -0.71875 13.203125 -0.28125 C 12.753906 0.15625 12.164062 0.375 11.4375 0.375 C 10.707031 0.375 10.113281 0.078125 9.65625 -0.515625 C 9.195312 -1.109375 8.96875 -2 8.96875 -3.1875 L 8.96875 -3.75 C 8.613281 -2.332031 8.050781 -1.289062 7.28125 -0.625 C 6.507812 0.0390625 5.617188 0.375 4.609375 0.375 C 3.597656 0.375 2.785156 0.0546875 2.171875 -0.578125 C 1.554688 -1.210938 1.25 -2.054688 1.25 -3.109375 C 1.25 -4.160156 1.738281 -5.097656 2.71875 -5.921875 C 3.695312 -6.742188 5.101562 -7.15625 6.9375 -7.15625 C 7.332031 -7.15625 8 -7.101562 8.9375 -7 Z M 5.3125 -0.8125 C 6.1875 -0.8125 6.972656 -1.304688 7.671875 -2.296875 C 8.367188 -3.285156 8.78125 -4.675781 8.90625 -6.46875 C 8.695312 -6.488281 8.40625 -6.5 8.03125 -6.5 C 6.363281 -6.5 5.171875 -6.148438 4.453125 -5.453125 C 3.734375 -4.753906 3.375 -3.945312 3.375 -3.03125 C 3.375 -2.425781 3.550781 -1.90625 3.90625 -1.46875 C 4.257812 -1.03125 4.726562 -0.8125 5.3125 -0.8125 Z M 5.3125 -0.8125" transform="translate(85.371 278.324)"/></g></g></g><g><g><g><path d="M 12.515625 -1.53125 C 11.378906 -0.257812 9.894531 0.375 8.0625 0.375 C 6.226562 0.375 4.695312 -0.3125 3.46875 -1.6875 L 3.21875 0.25 L 2.6875 0.25 L 2.6875 -19.234375 C 2.6875 -19.523438 2.539062 -19.671875 2.25 -19.671875 L 0.78125 -19.671875 L 0.78125 -20.234375 L 2.3125 -20.234375 C 3.5625 -20.234375 4.4375 -20.296875 4.9375 -20.421875 L 4.9375 -9.3125 C 5.289062 -10.8125 5.859375 -11.945312 6.640625 -12.71875 C 7.421875 -13.488281 8.289062 -13.875 9.25 -13.875 C 10.5625 -13.875 11.71875 -13.21875 12.71875 -11.90625 C 13.71875 -10.59375 14.21875 -8.851562 14.21875 -6.6875 C 14.21875 -4.519531 13.648438 -2.800781 12.515625 -1.53125 Z M 8.78125 -12.6875 C 7.738281 -12.6875 6.835938 -12.039062 6.078125 -10.75 C 5.316406 -9.457031 4.9375 -7.59375 4.9375 -5.15625 L 4.9375 -1.28125 C 5.8125 -0.695312 6.804688 -0.40625 7.921875 -0.40625 C 9.035156 -0.40625 9.96875 -0.957031 10.71875 -2.0625 C 11.46875 -3.164062 11.84375 -4.6875 11.84375 -6.625 C 11.84375 -8.5625 11.539062 -10.054688 10.9375 -11.109375 C 10.332031 -12.160156 9.613281 -12.6875 8.78125 -12.6875 Z M 8.78125 -12.6875" transform="translate(102.855 278.324)"/></g></g></g><g><g><g><path d="M 3.3125 -1 L 3.3125 -12.5 C 3.3125 -12.789062 3.164062 -12.9375 2.875 -12.9375 L 1.40625 -12.9375 L 1.40625 -13.5 L 2.9375 -13.5 C 4.1875 -13.5 5.0625 -13.5625 5.5625 -13.6875 L 5.5625 -0.9375 C 5.5625 -0.6875 5.707031 -0.5625 6 -0.5625 L 7.46875 -0.5625 L 7.46875 0 L 1.40625 0 L 1.40625 -0.5625 L 2.875 -0.5625 C 3.164062 -0.5625 3.3125 -0.707031 3.3125 -1 Z M 3.390625 -16.9375 C 3.109375 -17.21875 2.96875 -17.566406 2.96875 -17.984375 C 2.96875 -18.398438 3.109375 -18.75 3.390625 -19.03125 C 3.671875 -19.3125 4.019531 -19.453125 4.4375 -19.453125 C 4.851562 -19.453125 5.203125 -19.3125 5.484375 -19.03125 C 5.765625 -18.75 5.90625 -18.398438 5.90625 -17.984375 C 5.90625 -17.566406 5.765625 -17.21875 5.484375 -16.9375 C 5.203125 -16.65625 4.851562 -16.515625 4.4375 -16.515625 C 4.019531 -16.515625 3.671875 -16.65625 3.390625 -16.9375 Z M 3.390625 -16.9375" transform="translate(121.462 278.324)"/></g></g></g><g><g><g><path d="M 14.125 -9.125 L 14.125 -0.9375 C 14.125 -0.6875 14.269531 -0.5625 14.5625 -0.5625 L 16.015625 -0.5625 L 16.015625 0 L 10.40625 0 L 10.40625 -0.5625 L 11.4375 -0.5625 C 11.726562 -0.5625 11.875 -0.6875 11.875 -0.9375 L 11.875 -9.53125 C 11.875 -10.59375 11.640625 -11.378906 11.171875 -11.890625 C 10.703125 -12.398438 10.082031 -12.65625 9.3125 -12.65625 C 8.226562 -12.65625 7.332031 -12.015625 6.625 -10.734375 C 5.914062 -9.453125 5.5625 -7.613281 5.5625 -5.21875 L 5.5625 -1 C 5.5625 -0.707031 5.707031 -0.5625 6 -0.5625 L 7.03125 -0.5625 L 7.03125 0 L 1.40625 0 L 1.40625 -0.5625 L 2.875 -0.5625 C 3.164062 -0.5625 3.3125 -0.6875 3.3125 -0.9375 L 3.3125 -12.5 C 3.3125 -12.789062 3.164062 -12.9375 2.875 -12.9375 L 1.40625 -12.9375 L 1.40625 -13.5 L 2.9375 -13.5 C 4.1875 -13.5 5.0625 -13.5625 5.5625 -13.6875 L 5.5625 -9.4375 C 6.269531 -12.394531 7.832031 -13.875 10.25 -13.875 C 11.332031 -13.875 12.25 -13.484375 13 -12.703125 C 13.75 -11.921875 14.125 -10.726562 14.125 -9.125 Z M 14.125 -9.125" transform="translate(133.014 278.324)"/></g></g></g><g><g><g><path d="M 7.5625 -13.875 C 9 -13.875 10.132812 -13.394531 10.96875 -12.4375 C 11.800781 -11.476562 12.21875 -10.070312 12.21875 -8.21875 C 12.21875 -7.84375 12.195312 -7.425781 12.15625 -6.96875 L 3.625 -6.96875 L 3.625 -6.75 C 3.625 -4.769531 3.984375 -3.210938 4.703125 -2.078125 C 5.421875 -0.941406 6.347656 -0.375 7.484375 -0.375 C 8.617188 -0.375 9.550781 -0.664062 10.28125 -1.25 C 11.007812 -1.832031 11.507812 -2.664062 11.78125 -3.75 L 12.375 -3.625 C 12.125 -2.351562 11.550781 -1.367188 10.65625 -0.671875 C 9.757812 0.0234375 8.726562 0.375 7.5625 0.375 C 5.75 0.375 4.242188 -0.257812 3.046875 -1.53125 C 1.847656 -2.800781 1.25 -4.535156 1.25 -6.734375 C 1.25 -8.929688 1.851562 -10.671875 3.0625 -11.953125 C 4.269531 -13.234375 5.769531 -13.875 7.5625 -13.875 Z M 10.0625 -9.28125 C 10.0625 -11.84375 9.101562 -13.125 7.1875 -13.125 C 6.226562 -13.125 5.410156 -12.601562 4.734375 -11.5625 C 4.054688 -10.519531 3.695312 -9.195312 3.65625 -7.59375 L 9.9375 -7.59375 C 10.019531 -8.300781 10.0625 -8.863281 10.0625 -9.28125 Z M 10.0625 -9.28125" transform="translate(153.276 278.324)"/></g></g></g><g><g><g><path d="M 4.3125 -16.796875 L 4.78125 -16.796875 L 4.78125 -13.5 L 7.90625 -13.5 L 7.90625 -12.9375 L 4.78125 -12.9375 L 4.78125 -2.34375 C 4.78125 -1.21875 5.09375 -0.65625 5.71875 -0.65625 C 6.007812 -0.65625 6.265625 -0.789062 6.484375 -1.0625 C 6.703125 -1.332031 6.8125 -1.644531 6.8125 -2 C 6.8125 -2.351562 6.78125 -2.6875 6.71875 -3 L 7.3125 -3.09375 C 7.394531 -2.78125 7.4375 -2.4375 7.4375 -2.0625 C 7.4375 -1.3125 7.210938 -0.71875 6.765625 -0.28125 C 6.316406 0.15625 5.726562 0.375 5 0.375 C 4.269531 0.375 3.675781 0.078125 3.21875 -0.515625 C 2.757812 -1.109375 2.53125 -2 2.53125 -3.1875 L 2.53125 -12.5 C 2.53125 -12.789062 2.382812 -12.9375 2.09375 -12.9375 L 0.625 -12.9375 L 0.625 -13.5 L 2.15625 -13.5 C 2.820312 -13.5 3.539062 -14.597656 4.3125 -16.796875 Z M 4.3125 -16.796875" transform="translate(170.198 278.324)"/></g></g></g><g><g><g><path d="M 5.3125 -8.46875 L 8.5625 -7.25 C 9.332031 -6.957031 9.921875 -6.515625 10.328125 -5.921875 C 10.734375 -5.328125 10.9375 -4.664062 10.9375 -3.9375 C 10.9375 -2.8125 10.488281 -1.8125 9.59375 -0.9375 C 8.695312 -0.0625 7.492188 0.375 5.984375 0.375 C 4.472656 0.375 3.050781 0.09375 1.71875 -0.46875 C 1.84375 -0.96875 1.90625 -1.84375 1.90625 -3.09375 L 1.90625 -4.34375 L 2.46875 -4.34375 L 2.6875 -2.71875 C 2.875 -1.15625 3.96875 -0.375 5.96875 -0.375 C 6.863281 -0.375 7.609375 -0.648438 8.203125 -1.203125 C 8.796875 -1.753906 9.09375 -2.382812 9.09375 -3.09375 C 9.09375 -4.070312 8.5 -4.78125 7.3125 -5.21875 L 4.0625 -6.4375 C 3.332031 -6.707031 2.78125 -7.132812 2.40625 -7.71875 C 2.03125 -8.300781 1.84375 -8.957031 1.84375 -9.6875 C 1.84375 -10.789062 2.238281 -11.765625 3.03125 -12.609375 C 3.820312 -13.453125 4.816406 -13.875 6.015625 -13.875 C 7.210938 -13.875 8.5625 -13.59375 10.0625 -13.03125 C 9.9375 -12.53125 9.875 -11.65625 9.875 -10.40625 L 9.875 -9.15625 L 9.3125 -9.15625 L 9.09375 -10.78125 C 8.925781 -12.28125 7.976562 -13.03125 6.25 -13.03125 C 5.476562 -13.03125 4.84375 -12.789062 4.34375 -12.3125 C 3.84375 -11.832031 3.59375 -11.269531 3.59375 -10.625 C 3.59375 -9.625 4.164062 -8.90625 5.3125 -8.46875 Z M 5.3125 -8.46875" transform="translate(181.875 278.324)"/></g></g></g><g><g><g><path d="M 8.234375 -20.078125 C 9.679688 -20.078125 10.8125 -19.707031 11.625 -18.96875 C 12.4375 -18.226562 12.84375 -17.328125 12.84375 -16.265625 C 12.84375 -15.210938 12.476562 -14.207031 11.75 -13.25 C 11.019531 -12.289062 9.988281 -11.5625 8.65625 -11.0625 L 12.5625 -5.5625 L 14.1875 -9.71875 L 12.59375 -9.71875 L 12.59375 -10.28125 L 17.359375 -10.28125 L 17.359375 -9.71875 L 15.40625 -9.71875 C 15.21875 -9.71875 15.070312 -9.570312 14.96875 -9.28125 L 13.15625 -4.75 L 15.984375 -0.8125 C 16.085938 -0.644531 16.234375 -0.5625 16.421875 -0.5625 L 17.546875 -0.5625 L 17.546875 0 L 15.796875 0 C 14.785156 0 14.03125 0.0625 13.53125 0.1875 L 11.84375 -2.21875 C 10.59375 -0.488281 8.882812 0.375 6.71875 0.375 C 4.925781 0.375 3.515625 -0.171875 2.484375 -1.265625 C 1.453125 -2.359375 0.9375 -3.597656 0.9375 -4.984375 C 0.9375 -6.367188 1.359375 -7.570312 2.203125 -8.59375 C 3.046875 -9.613281 4.269531 -10.363281 5.875 -10.84375 L 4.90625 -12.25 C 4.03125 -13.476562 3.59375 -14.703125 3.59375 -15.921875 C 3.59375 -17.148438 4.003906 -18.148438 4.828125 -18.921875 C 5.648438 -19.691406 6.785156 -20.078125 8.234375 -20.078125 Z M 7.34375 -0.84375 C 8.96875 -0.84375 10.300781 -1.550781 11.34375 -2.96875 L 6.375 -10.125 C 4.5 -9.125 3.5625 -7.488281 3.5625 -5.21875 C 3.5625 -3.800781 3.925781 -2.71875 4.65625 -1.96875 C 5.382812 -1.21875 6.28125 -0.84375 7.34375 -0.84375 Z M 8.1875 -19.265625 C 6.4375 -19.265625 5.5625 -18.398438 5.5625 -16.671875 C 5.5625 -15.828125 5.925781 -14.894531 6.65625 -13.875 L 8.1875 -11.6875 C 9.039062 -12.101562 9.695312 -12.710938 10.15625 -13.515625 C 10.613281 -14.316406 10.84375 -15.164062 10.84375 -16.0625 C 10.84375 -16.96875 10.609375 -17.726562 10.140625 -18.34375 C 9.671875 -18.957031 9.019531 -19.265625 8.1875 -19.265625 Z M 8.1875 -19.265625" transform="translate(208.32 278.324)"/></g></g></g><g><g><g><path d="M 9.09375 -18.796875 L 9.09375 -0.9375 C 9.09375 -0.6875 9.238281 -0.5625 9.53125 -0.5625 L 12.25 -0.5625 L 12.25 0 L 3.375 0 L 3.375 -0.5625 L 6.09375 -0.5625 C 6.382812 -0.5625 6.53125 -0.6875 6.53125 -0.9375 L 6.53125 -18.796875 L 2.5 -18.796875 C 1.957031 -18.796875 1.664062 -18.566406 1.625 -18.109375 L 1.15625 -14.46875 L 0.4375 -14.46875 L 0.4375 -15.921875 C 0.4375 -17.753906 0.34375 -19.097656 0.15625 -19.953125 C 0.820312 -19.765625 1.976562 -19.671875 3.625 -19.671875 L 12 -19.671875 C 13.644531 -19.671875 14.800781 -19.765625 15.46875 -19.953125 C 15.28125 -19.097656 15.1875 -17.753906 15.1875 -15.921875 L 15.1875 -14.46875 L 14.46875 -14.46875 L 14 -18.109375 C 13.957031 -18.566406 13.664062 -18.796875 13.125 -18.796875 Z M 9.09375 -18.796875" transform="translate(240.602 278.324)"/></g></g></g><g><g><g><path d="M 9.21875 -13.875 C 10.03125 -13.875 10.691406 -13.53125 11.203125 -12.84375 C 11.710938 -12.15625 11.96875 -11.289062 11.96875 -10.25 C 11.96875 -9.207031 11.539062 -8.6875 10.6875 -8.6875 C 10.1875 -8.6875 9.78125 -8.84375 9.46875 -9.15625 C 9.738281 -9.757812 9.875 -10.375 9.875 -11 C 9.875 -12.101562 9.414062 -12.65625 8.5 -12.65625 C 7.726562 -12.65625 7.046875 -12.015625 6.453125 -10.734375 C 5.859375 -9.453125 5.5625 -7.59375 5.5625 -5.15625 L 5.5625 -1 C 5.5625 -0.707031 5.707031 -0.5625 6 -0.5625 L 8.09375 -0.5625 L 8.09375 0 L 1.40625 0 L 1.40625 -0.5625 L 2.875 -0.5625 C 3.164062 -0.5625 3.3125 -0.707031 3.3125 -1 L 3.3125 -12.5 C 3.3125 -12.789062 3.164062 -12.9375 2.875 -12.9375 L 1.40625 -12.9375 L 1.40625 -13.5 L 2.9375 -13.5 C 4.1875 -13.5 5.0625 -13.5625 5.5625 -13.6875 L 5.5625 -9.6875 C 5.894531 -11.125 6.382812 -12.179688 7.03125 -12.859375 C 7.675781 -13.535156 8.40625 -13.875 9.21875 -13.875 Z M 9.21875 -13.875" transform="translate(259.366 278.324)"/></g></g></g><g><g><g><path d="M 3.3125 -1 L 3.3125 -12.5 C 3.3125 -12.789062 3.164062 -12.9375 2.875 -12.9375 L 1.40625 -12.9375 L 1.40625 -13.5 L 2.9375 -13.5 C 4.1875 -13.5 5.0625 -13.5625 5.5625 -13.6875 L 5.5625 -0.9375 C 5.5625 -0.6875 5.707031 -0.5625 6 -0.5625 L 7.46875 -0.5625 L 7.46875 0 L 1.40625 0 L 1.40625 -0.5625 L 2.875 -0.5625 C 3.164062 -0.5625 3.3125 -0.707031 3.3125 -1 Z M 3.390625 -16.9375 C 3.109375 -17.21875 2.96875 -17.566406 2.96875 -17.984375 C 2.96875 -18.398438 3.109375 -18.75 3.390625 -19.03125 C 3.671875 -19.3125 4.019531 -19.453125 4.4375 -19.453125 C 4.851562 -19.453125 5.203125 -19.3125 5.484375 -19.03125 C 5.765625 -18.75 5.90625 -18.398438 5.90625 -17.984375 C 5.90625 -17.566406 5.765625 -17.21875 5.484375 -16.9375 C 5.203125 -16.65625 4.851562 -16.515625 4.4375 -16.515625 C 4.019531 -16.515625 3.671875 -16.65625 3.390625 -16.9375 Z M 3.390625 -16.9375" transform="translate(274.633 278.324)"/></g></g></g><g><g><g><path d="M 22.046875 -9.125 L 22.046875 -0.9375 C 22.046875 -0.6875 22.191406 -0.5625 22.484375 -0.5625 L 23.953125 -0.5625 L 23.953125 0 L 18.328125 0 L 18.328125 -0.5625 L 19.359375 -0.5625 C 19.648438 -0.5625 19.796875 -0.6875 19.796875 -0.9375 L 19.796875 -9.53125 C 19.796875 -10.59375 19.578125 -11.378906 19.140625 -11.890625 C 18.703125 -12.398438 18.109375 -12.65625 17.359375 -12.65625 C 16.316406 -12.65625 15.460938 -11.984375 14.796875 -10.640625 C 14.140625 -9.296875 13.8125 -7.363281 13.8125 -4.84375 L 13.8125 -1 C 13.8125 -0.707031 13.957031 -0.5625 14.25 -0.5625 L 15.703125 -0.5625 L 15.703125 0 L 10.09375 0 L 10.09375 -0.5625 L 11.125 -0.5625 C 11.414062 -0.5625 11.5625 -0.6875 11.5625 -0.9375 L 11.5625 -9.53125 C 11.5625 -10.59375 11.34375 -11.378906 10.90625 -11.890625 C 10.46875 -12.398438 9.875 -12.65625 9.125 -12.65625 C 8.082031 -12.65625 7.226562 -11.984375 6.5625 -10.640625 C 5.894531 -9.296875 5.5625 -7.363281 5.5625 -4.84375 L 5.5625 -1 C 5.5625 -0.707031 5.707031 -0.5625 6 -0.5625 L 7.03125 -0.5625 L 7.03125 0 L 1.40625 0 L 1.40625 -0.5625 L 2.875 -0.5625 C 3.164062 -0.5625 3.3125 -0.6875 3.3125 -0.9375 L 3.3125 -12.5 C 3.3125 -12.789062 3.164062 -12.9375 2.875 -12.9375 L 1.40625 -12.9375 L 1.40625 -13.5 L 2.9375 -13.5 C 4.1875 -13.5 5.0625 -13.5625 5.5625 -13.6875 L 5.5625 -9.5 C 6.25 -12.414062 7.726562 -13.875 10 -13.875 C 11 -13.875 11.867188 -13.507812 12.609375 -12.78125 C 13.347656 -12.050781 13.75 -10.945312 13.8125 -9.46875 C 14.5 -12.40625 15.972656 -13.875 18.234375 -13.875 C 19.273438 -13.875 20.171875 -13.484375 20.921875 -12.703125 C 21.671875 -11.921875 22.046875 -10.726562 22.046875 -9.125 Z M 22.046875 -9.125" transform="translate(286.185 278.324)"/></g></g></g></svg>